<?xml version="1.0" encoding="UTF-8"?>
<!DOCTYPE svg PUBLIC "-//W3C//DTD SVG 1.1//EN" "http://www.w3.org/Graphics/SVG/1.1/DTD/svg11.dtd">
<!-- Creator: CorelDRAW -->
<svg xmlns="http://www.w3.org/2000/svg" xml:space="preserve" width="210mm" height="297mm" version="1.1" style="shape-rendering:geometricPrecision; text-rendering:geometricPrecision; image-rendering:optimizeQuality; fill-rule:evenodd; clip-rule:evenodd"
viewBox="0 0 21000 29700"
 xmlns:xlink="http://www.w3.org/1999/xlink">
 <defs>
  <style type="text/css">
   <![CDATA[
    .str0 {stroke:#332C2B;stroke-width:17.64}
    .fil0 {fill:none}
    .fil13 {fill:#FEFEFE}
    .fil23 {fill:#C9CACA}
    .fil5 {fill:#FFF9B1}
    .fil4 {fill:#FFF000}
    .fil7 {fill:#FFE100}
    .fil16 {fill:#FDD100}
    .fil11 {fill:#E62129}
    .fil8 {fill:#CB252A}
    .fil1 {fill:#6EB939}
    .fil21 {fill:#09A845}
    .fil2 {fill:#009458}
    .fil14 {fill:#007D44}
    .fil10 {fill:#0087D0}
    .fil3 {fill:#1D1819}
    .fil19 {fill:#757475;fill-rule:nonzero}
    .fil15 {fill:#332C2B;fill-rule:nonzero}
    .fil12 {fill:#FFF000;fill-rule:nonzero}
    .fil18 {fill:#CB252A;fill-rule:nonzero}
    .fil20 {fill:#89807A;fill-rule:nonzero}
    .fil17 {fill:#8A7E58;fill-rule:nonzero}
    .fil22 {fill:#006F3F;fill-rule:nonzero}
    .fil6 {fill:#1D1819;fill-rule:nonzero}
    .fil9 {fill:url(#id0)}
   ]]>
  </style>
  <radialGradient id="id0" gradientUnits="userSpaceOnUse" gradientTransform="matrix(1.41422 -0 -0 1.41421 -4349 -7130)" cx="10500" cy="17212.6" r="1327.33" fx="10500" fy="17212.6">
   <stop offset="0" style="stop-opacity:1; stop-color:#FFF000"/>
   <stop offset="0.45098" style="stop-opacity:1; stop-color:#FFF000"/>
   <stop offset="0.690196" style="stop-opacity:1; stop-color:#F08519"/>
   <stop offset="1" style="stop-opacity:1; stop-color:#F08519"/>
  </radialGradient>
 </defs>
 <g id="Layer_x0020_1">
  <metadata id="CorelCorpID_0Corel-Layer"/>
  <g id="Kabupaten_x0020_Kutai_x0020_Timur.cdr">
   <rect class="fil0" x="-9500" y="-150" width="40000" height="30000"/>
   <g>
    <g>
     <path class="fil1" d="M3563 3500c-166,1274 -982,2077 -2447,2410 0,3729 0,7458 0,11187 0,830 3,1523 244,2332 733,2467 3244,7136 9140,7801 5896,-665 8407,-5334 9140,-7801 241,-809 244,-1502 244,-2332 0,-3729 0,-7458 0,-11187 -1465,-333 -2281,-1136 -2447,-2410 -1670,-798 -4304,-1030 -6937,-1030 -2633,0 -5267,232 -6937,1030z"/>
     <path class="fil2" d="M10500 26772c2409,-283 4513,-1301 6173,-3078 1134,-1213 2056,-2799 2531,-4395 221,-743 225,-1436 225,-2202 0,-3612 0,-7223 0,-10835 -1244,-370 -2141,-1144 -2401,-2447 -1830,-783 -4605,-890 -6528,-890 -1923,0 -4698,107 -6528,890 -260,1303 -1157,2077 -2401,2447 0,3612 0,7223 0,10835 0,766 4,1459 225,2202 475,1596 1397,3182 2531,4395 1660,1777 3764,2795 6173,3078z"/>
    </g>
    <g>
     <polygon class="fil3" points="10726,3827 11234,3892 10859,4269 10939,4800 10492,4562 10029,4779 10120,4278 9766,3886 10283,3840 10506,3327 "/>
     <polygon class="fil4" points="10506,3490 10681,3887 11094,3940 10789,4246 10855,4681 10494,4489 10116,4666 10190,4258 9902,3940 10327,3902 "/>
    </g>
    <g>
     <polygon class="fil5" points="10500,8693 8527,9649 8527,14587 10500,15125 12473,14587 12473,9649 "/>
     <path class="fil6" d="M10500 8723l-1946 943 0 4901 1946 530 1946 -530 0 -4901 -1946 -943zm-1985 902l1973 -957 12 -5 12 5 1973 957 15 7 0 17 0 4938 0 21 -20 6 -1973 537 -14 0 -1973 -537 -20 -6 0 -21 0 -4938 0 -17 15 -7z"/>
    </g>
    <g>
     <path class="fil3" d="M2842 6483c5161,-1443 10323,-1295 15484,0 0,653 0,1307 0,1960 -5137,-1442 -10296,-1600 -15484,0 0,-653 0,-1307 0,-1960z"/>
     <path class="fil7" d="M2929 6563c0,592 0,1184 0,1776 5099,-1548 10201,-1412 15310,3 0,-593 0,-1185 0,-1778 -5106,-1271 -10215,-1413 -15310,-1z"/>
     <path class="fil6" d="M3813 7632l-226 -904 150 -37 100 401 203 -477 202 -50 -192 422 433 478 -194 48 -310 -373 -84 182 68 273 -150 37zm1425 -309l-165 35 -109 -194 -299 64 -18 220 -161 34 99 -973 159 -34 494 848zm-355 -302l-175 -316 -29 360 204 -44zm270 -626l302 -53c59,-10 104,-15 135,-14 30,0 59,8 85,24 27,15 50,37 71,66 21,29 36,64 42,103 8,43 6,84 -7,124 -13,39 -34,70 -63,94 48,8 89,30 120,64 32,35 52,79 62,132 7,42 6,84 -3,126 -9,42 -25,78 -48,106 -24,28 -55,49 -95,62 -25,7 -86,20 -183,38l-256 46 -162 -918zm179 126l38 212 99 -17c60,-11 97,-18 111,-23 25,-8 44,-23 55,-44 12,-20 15,-46 10,-75 -5,-29 -16,-51 -31,-66 -17,-16 -38,-23 -64,-22 -15,0 -59,7 -130,20l-88 15zm65 365l43 245 141 -25c55,-9 89,-17 103,-24 22,-9 38,-24 49,-46 11,-22 14,-49 8,-82 -5,-27 -15,-50 -29,-67 -15,-17 -33,-28 -55,-34 -22,-5 -68,-1 -137,11l-123 22zm549 -636l153 -22 70 500c11,79 21,130 28,153 12,37 32,65 59,85 28,19 64,26 106,20 44,-6 75,-22 94,-47 19,-24 29,-53 29,-85 0,-32 -5,-84 -16,-157l-71 -511 153 -21 68 484c15,111 22,190 20,237 -1,47 -11,87 -29,122 -18,35 -44,64 -79,88 -34,24 -82,40 -142,48 -72,10 -129,8 -169,-7 -40,-15 -73,-38 -100,-67 -26,-29 -45,-61 -57,-96 -17,-52 -33,-129 -48,-232l-69 -492zm903 831l-129 -922 245 -35c93,-13 155,-17 184,-11 46,7 87,32 122,74 36,43 59,100 70,174 8,56 6,105 -6,146 -11,41 -28,74 -51,100 -23,26 -48,44 -74,55 -35,14 -87,26 -157,36l-99 14 49 348 -154 21zm46 -788l37 262 83 -12c61,-8 100,-19 119,-31 19,-13 33,-30 42,-52 8,-23 11,-47 7,-75 -5,-33 -17,-60 -36,-79 -19,-20 -42,-30 -67,-32 -19,-2 -56,1 -111,9l-74 10zm1265 641l-167 17 -89 -203 -304 32 -41 217 -163 17 199 -958 163 -17 402 895zm-322 -337l-141 -333 -66 355 207 -22zm500 330l-67 -771 -226 20 -14 -157 606 -53 14 157 -226 20 68 770 -155 14zm482 -34l-48 -931 567 -29 8 157 -413 22 11 206 384 -20 8 156 -384 21 14 253 427 -23 8 157 -582 31zm716 -25l-33 -931 150 -5 335 610 -21 -621 143 -5 33 931 -155 5 -330 -596 21 607 -143 5zm1070 -9l16 -931 155 2 -7 414 319 -408 208 4 -294 357 294 574 -200 -3 -203 -441 -128 153 -5 282 -155 -3zm818 -914l155 8 -27 503c-4,80 -5,132 -2,156 4,39 19,70 42,94 24,25 57,38 100,40 44,3 78,-7 101,-27 24,-21 39,-47 45,-78 6,-32 11,-84 15,-158l27 -515 154 8 -26 489c-5,112 -14,190 -24,236 -11,46 -29,84 -53,114 -24,31 -55,55 -94,72 -38,16 -88,23 -148,20 -73,-4 -128,-17 -165,-39 -37,-23 -65,-51 -85,-85 -20,-34 -33,-69 -38,-105 -7,-54 -8,-133 -3,-237l26 -496zm897 974l67 -771 -226 -20 14 -157 606 53 -14 157 -226 -20 -67 771 -154 -13zm1078 97l-167 -17 -44 -218 -305 -32 -85 204 -163 -17 394 -895 163 17 207 958zm-244 -396l-69 -355 -139 333 208 22zm325 403l114 -925 153 19 -113 925 -154 -19zm770 104l108 -767 -225 -31 22 -156 602 84 -22 157 -224 -32 -108 766 -153 -21zm467 56l162 -918 152 27 -162 918 -152 -27zm300 52l162 -917 228 40 26 650 246 -602 228 40 -162 918 -141 -25 127 -722 -277 695 -147 -26 -21 -748 -128 722 -141 -25zm1075 -765l151 32 -105 494c-17,78 -26,129 -27,153 -1,39 8,72 27,100 20,28 51,46 93,55 43,9 78,5 104,-12 26,-16 45,-40 56,-70 11,-30 24,-81 39,-153l108 -504 151 32 -102 479c-23,109 -44,185 -61,229 -18,43 -41,78 -70,105 -28,26 -63,44 -104,55 -40,11 -91,10 -150,-3 -71,-15 -123,-37 -156,-65 -33,-28 -56,-60 -71,-97 -15,-36 -22,-73 -21,-110 1,-54 13,-132 34,-234l104 -486zm558 1069l210 -908 317 74c80,18 136,40 168,64 33,25 55,60 67,107 12,47 12,97 0,151 -16,68 -46,120 -89,157 -43,37 -99,53 -167,50 27,31 49,62 63,95 15,32 32,88 52,167l50 198 -180 -42 -63 -222c-23,-80 -39,-130 -49,-152 -10,-22 -22,-38 -36,-48 -15,-11 -39,-20 -74,-28l-30 -7 -88 379 -151 -35zm272 -489l111 26c73,16 119,23 139,20 19,-3 36,-13 51,-29 14,-16 24,-37 31,-64 7,-31 6,-57 -3,-79 -9,-22 -26,-38 -49,-49 -12,-4 -48,-14 -109,-28l-118 -27 -53 230z"/>
    </g>
    <g>
     <g>
      <path class="fil3" d="M6574 9757c912,1626 1825,3252 2738,4878 -227,-223 -517,-532 -745,-755 -1144,-1841 -2566,-2814 -1993,-4123z"/>
      <polygon class="fil3" points="14216,10679 14549,10869 11906,14826 11655,14647 "/>
      <polygon class="fil4" points="14447,11021 14206,11381 13880,11196 14118,10827 "/>
      <path class="fil3" d="M14485 10833c155,-333 318,-644 638,-933 78,404 -212,711 -574,969 -22,-12 -43,-24 -64,-36z"/>
     </g>
     <g>
      <g>
       <path class="fil8" d="M10942 13157c614,66 1187,269 1688,576l-207 338c232,142 446,309 640,497l276 -285c426,413 762,918 976,1483l-370 141c94,250 163,512 201,784l393 -56c26,189 40,382 40,578 0,351 -44,692 -128,1018l-383 -99c-69,265 -166,519 -288,757l353 181c-253,495 -605,931 -1030,1283l-253 -305c-207,172 -434,322 -676,446l180 353c-431,220 -906,366 -1408,421l-43 -394c-133,14 -267,22 -403,22 -138,0 -274,-8 -407,-23l-44 394c-524,-58 -1017,-214 -1462,-451l186 -350c-240,-128 -464,-281 -669,-457l-258 301c-383,-328 -705,-727 -945,-1175l350 -187c-127,-236 -228,-488 -301,-752l-382 106c-96,-347 -147,-712 -147,-1089 0,-209 15,-414 46,-614l391 59c41,-271 112,-533 209,-782l-369 -144c212,-544 537,-1031 947,-1432l277 283c193,-189 406,-357 637,-501l-209 -337c503,-312 1078,-518 1695,-586l44 393c135,-15 272,-23 411,-23 135,0 268,8 399,22l43 -394z"/>
       <circle class="fil9" cx="10500" cy="17213" r="3311"/>
       <path class="fil10" d="M13810 17250c-19,1811 -1494,3273 -3310,3273 -1816,0 -3291,-1462 -3310,-3273l6620 0z"/>
       <path class="fil3 str0" d="M10510 18860c-368,0 -657,755 -903,819 -232,61 -521,258 -554,512 437,213 928,332 1447,332 478,0 932,-101 1342,-283 -44,-39 -95,-76 -144,-109 -188,-126 -349,-576 -577,-778 -128,-113 -278,-85 -393,-251 -50,-71 -159,-237 -218,-242z"/>
      </g>
      <path class="fil11" d="M10158 14135c422,1692 1646,1452 1318,3858 439,-496 868,-728 1412,-854 -1369,806 -284,1704 -1328,2414 -585,-1126 -1751,-1215 -2382,105 -387,-660 -1016,-688 -1075,-1813 262,345 362,633 759,749 -18,-752 -520,-735 -11,-2140 162,306 -3,780 316,959 -63,-1051 609,-1207 253,-2235 938,786 -102,2161 654,2404 1208,-1128 -271,-2488 84,-3447z"/>
      <path class="fil12" d="M10184 14128c164,654 448,1018 715,1359 416,532 790,1011 615,2423 202,-217 403,-381 615,-506 232,-137 478,-228 753,-292l20 50c-720,424 -750,874 -779,1308 -26,390 -51,767 -548,1105l-25 17 -14 -27c-190,-364 -440,-618 -713,-748 -143,-69 -293,-103 -443,-101 -150,1 -301,39 -447,115 -273,142 -529,418 -731,839l-22 46 -26 -44c-131,-225 -292,-376 -448,-523 -304,-286 -591,-555 -630,-1302l48 -18c61,80 113,156 162,228 153,227 276,408 547,499 -10,-225 -66,-379 -121,-530 -118,-326 -229,-635 114,-1581l20 -58 29 54c67,128 80,280 92,430 16,193 32,382 171,490 -17,-440 95,-721 199,-981 134,-332 253,-630 58,-1193l43 -29c511,428 448,1023 395,1522 -44,413 -81,759 234,871 704,-668 455,-1423 224,-2124 -155,-469 -302,-914 -158,-1302l51 3zm672 1393c-257,-330 -531,-680 -700,-1287 -86,350 47,753 187,1176 238,720 494,1497 -251,2192l-11 10 -16 -4c-373,-120 -334,-490 -286,-933 49,-461 106,-1004 -302,-1408 156,520 40,811 -89,1133 -106,265 -221,552 -194,1011l3 50 -43 -24c-204,-115 -222,-335 -241,-562 -10,-120 -20,-243 -59,-348 -309,878 -203,1171 -91,1481 59,163 120,330 126,585l1 37 -36 -10c-315,-92 -447,-287 -613,-532 -33,-49 -67,-99 -105,-152 57,656 324,908 607,1173 149,140 302,285 432,493 204,-408 460,-677 733,-819 153,-80 313,-120 471,-122 159,-1 317,35 468,107 276,132 529,385 723,745 450,-318 474,-677 499,-1047 28,-416 57,-847 658,-1257 -203,58 -391,136 -571,242 -228,134 -442,314 -660,560l-47 -22c198,-1456 -176,-1935 -593,-2468z"/>
      <ellipse class="fil13" transform="matrix(-5.19105E-014 2.20238 -1.96003 -5.8329E-014 10452.2 17711.8)" rx="280" ry="195"/>
      <path class="fil14" d="M10834 17712c0,328 -181,596 -382,615l0 -1230c201,19 382,287 382,615z"/>
      <path class="fil15" d="M10853 17712c0,174 -44,333 -115,448 -73,117 -174,189 -286,189 -112,0 -213,-72 -286,-189 -71,-115 -115,-274 -115,-448 0,-175 44,-333 115,-448 73,-117 174,-190 286,-190 112,0 213,73 286,190 71,115 115,273 115,448zm-146 423c67,-108 108,-258 108,-423 0,-166 -41,-315 -108,-423 -66,-106 -156,-171 -255,-171 -99,0 -189,65 -254,171 -67,108 -109,257 -109,423 0,165 42,315 109,423 65,106 155,171 254,171 99,0 189,-65 255,-171z"/>
      <ellipse class="fil13" cx="9856" cy="18349" rx="585" ry="382"/>
      <path class="fil14" d="M9856 17967c312,0 566,182 584,382l-1168 0c18,-200 273,-382 584,-382z"/>
      <path class="fil15" d="M9856 17948c166,0 316,44 425,115 112,73 181,174 181,286 0,112 -69,213 -181,286 -109,71 -259,116 -425,116 -166,0 -316,-45 -425,-116 -111,-73 -180,-174 -180,-286 0,-112 69,-213 180,-286 109,-71 259,-115 425,-115zm402 147c-103,-67 -245,-109 -402,-109 -157,0 -299,42 -402,109 -100,65 -162,155 -162,254 0,99 62,189 162,255 103,67 245,108 402,108 157,0 299,-41 402,-108 100,-66 163,-156 163,-255 0,-99 -63,-189 -163,-254z"/>
      <ellipse class="fil13" cx="11067" cy="18349" rx="585" ry="382"/>
      <path class="fil14" d="M11067 18731c-312,0 -566,-181 -584,-382l1168 0c-18,201 -272,382 -584,382z"/>
      <path class="fil15" d="M11067 18751c-166,0 -316,-45 -425,-116 -112,-73 -180,-174 -180,-286 0,-112 68,-213 180,-286 109,-71 259,-115 425,-115 166,0 316,44 425,115 111,73 180,174 180,286 0,112 -69,213 -180,286 -109,71 -259,116 -425,116zm-402 -147c103,67 245,108 402,108 157,0 299,-41 402,-108 100,-66 162,-156 162,-255 0,-99 -62,-189 -162,-254 -103,-67 -245,-109 -402,-109 -157,0 -299,42 -402,109 -100,65 -162,155 -162,254 0,99 62,189 162,255z"/>
     </g>
     <g>
      <g>
       <path class="fil16" d="M8904 13529c0,-257 0,-515 0,-773 276,53 467,-12 573,-193 267,-422 -460,-610 -353,-82 -532,-537 431,-657 620,-340 321,354 -355,913 -840,1388z"/>
       <path class="fil16" d="M12223 13529c0,-257 0,-515 0,-773 -276,53 -468,-12 -574,-193 -266,-422 461,-610 354,-82 531,-537 -431,-657 -620,-340 -322,354 354,913 840,1388z"/>
      </g>
      <polygon class="fil17" points="10505,11115 12139,9833 12197,9866 10548,11192 10513,11220 10479,11191 8894,9837 8939,9811 "/>
      <polygon class="fil18" points="9027,11718 10036,11675 10954,11675 12050,11718 10975,11785 10039,11785 "/>
      <polygon class="fil17" points="10504,9945 11454,9445 11505,9474 10548,9981 10513,10000 10479,9980 9551,9458 9593,9434 "/>
      <path class="fil13" d="M10219 9144c-198,103 -371,350 33,646 -116,63 -236,236 -250,390 -17,174 90,326 260,327 -127,-150 -109,-324 -76,-391 58,-122 184,-131 314,-78 130,-53 256,-44 314,78 33,67 51,241 -76,391 170,-1 277,-153 260,-327 -14,-154 -134,-327 -250,-390 404,-296 231,-543 33,-646 202,283 -27,431 -281,455 -254,-24 -483,-172 -281,-455z"/>
      <path class="fil19" d="M10161 9203c-32,24 -61,51 -84,83 -27,36 -45,77 -50,122 -5,46 4,95 31,148 35,68 100,141 205,218l25 18 -27 15c-57,30 -115,89 -160,160 -43,66 -74,143 -80,214 -1,11 -2,21 -2,31 0,72 21,138 60,187 35,44 83,75 141,85 -38,-54 -59,-111 -70,-164l0 0c-17,-90 -2,-171 18,-213 31,-63 78,-98 134,-112 59,-15 128,-5 198,22 70,-27 139,-37 198,-22 56,14 103,49 134,112 20,42 35,123 18,213l0 0c-11,53 -32,110 -70,164 58,-10 106,-41 141,-85 38,-49 60,-115 60,-187 0,-10 -1,-20 -2,-31 -6,-71 -37,-148 -80,-214 -45,-71 -103,-130 -160,-160l-27 -15 25 -18c105,-77 170,-150 205,-218 27,-53 36,-102 31,-148 -5,-45 -23,-86 -50,-122 -23,-32 -52,-59 -84,-83 22,42 34,82 37,118 4,44 -4,84 -22,119 -18,35 -46,64 -80,89l0 0c-70,50 -169,80 -272,89l-4 0c-103,-9 -202,-39 -272,-89 -34,-25 -62,-54 -80,-89 -18,-35 -26,-75 -22,-119 3,-36 15,-76 37,-118zm-115 60c42,-57 102,-104 165,-136l24 28c-46,64 -68,121 -73,169 -4,37 3,70 18,98 15,29 39,54 68,75 65,46 156,74 252,83 96,-9 187,-37 252,-83l0 0c29,-21 53,-46 68,-75 15,-28 22,-61 18,-98 -5,-48 -27,-105 -73,-169l24 -28c63,32 123,79 165,136 31,41 51,89 57,141 6,53 -4,110 -35,170 -35,67 -97,139 -194,214 54,36 107,93 149,158 46,71 79,154 86,232 1,12 2,23 2,34 0,81 -24,155 -68,211 -45,57 -109,95 -187,102 -8,1 -17,1 -26,1l-41 0 27 -31c50,-60 76,-123 88,-182l0 0c16,-81 3,-152 -15,-189 -25,-52 -63,-81 -108,-92 -53,-13 -116,-3 -182,23l-14 0c-66,-26 -129,-36 -182,-23 -45,11 -83,40 -108,92 -18,37 -31,108 -15,189l0 0c11,59 38,122 88,182l27 31 -41 0c-9,0 -18,0 -26,-1 -78,-7 -142,-45 -187,-102 -44,-56 -69,-130 -68,-211 0,-11 0,-22 2,-34 7,-78 40,-161 86,-232 42,-65 95,-122 149,-158 -97,-75 -159,-147 -194,-214 -31,-60 -41,-117 -35,-170 6,-52 27,-100 57,-141z"/>
      <path class="fil8" d="M10519 11022c-65,125 -177,259 -242,383 -175,-51 -271,-214 -104,-337 -213,-44 -379,207 -31,501 -251,-82 -487,-175 -596,-375 -84,-154 -90,-274 28,-407 200,-228 448,-77 422,149 179,-335 -280,-550 -586,-295 -187,156 -238,382 -128,584 162,296 623,495 946,645 -254,132 -495,271 -644,459 -269,339 -87,808 442,567 -464,56 -356,-268 -191,-471 133,-162 305,-248 503,-284 75,258 150,517 225,776 75,-259 151,-518 226,-776 198,36 370,122 502,284 166,203 273,527 -191,471 530,241 711,-228 442,-567 -148,-188 -390,-327 -643,-459 322,-150 784,-349 945,-645 110,-202 60,-428 -127,-584 -307,-255 -766,-40 -586,295 -26,-226 221,-377 422,-149 117,133 111,253 27,407 -109,200 -345,293 -596,375 349,-294 183,-545 -30,-501 166,123 71,286 -104,337l-244 -383 -87 0z"/>
      <path class="fil13" d="M10500 9144l-120 1336c-32,151 -86,318 -185,553 -187,-67 -289,-282 -111,-443 -227,-58 -404,272 -32,658 -268,-106 -519,-229 -636,-493 -89,-203 -95,-361 30,-536 213,-300 477,-102 450,196 191,-440 -299,-723 -625,-388 -199,205 -253,503 -136,769 172,389 664,652 1008,849 -270,175 -528,357 -686,604 -287,447 -93,1065 471,747 -494,74 -380,-353 -204,-620 141,-213 325,-327 536,-375 80,341 160,682 240,1022 80,-340 160,-681 240,-1022 211,48 395,162 536,375 176,267 290,694 -204,620 564,318 758,-300 471,-747 -158,-247 -416,-429 -686,-604 344,-197 836,-460 1008,-849 117,-266 63,-564 -136,-769 -326,-335 -816,-52 -625,388 -27,-298 237,-496 450,-196 125,175 119,333 30,536 -117,264 -368,387 -636,493 372,-386 195,-716 -32,-658 178,161 76,376 -111,443 -117,-228 -178,-407 -211,-578l-94 -1311z"/>
      <path class="fil19" d="M10498 9382l-99 1099 -1 2c-16,77 -37,157 -67,248 -30,91 -69,192 -119,310l-7 16 -17 -6c-56,-20 -105,-53 -141,-93 -33,-36 -56,-78 -67,-122 -11,-45 -10,-93 7,-140 11,-32 30,-63 57,-93 -31,-2 -61,4 -87,17l0 0c-33,18 -61,48 -79,87 -18,41 -26,91 -20,150 12,107 73,238 207,378l-21 31c-134,-54 -265,-112 -378,-190 -113,-79 -207,-178 -267,-313 -46,-104 -71,-197 -68,-287 3,-91 34,-177 99,-268 61,-86 126,-132 189,-149 47,-13 92,-9 133,8 40,17 75,48 103,88 27,40 47,90 56,147 17,-85 7,-161 -23,-223 -25,-53 -64,-96 -112,-127 -47,-31 -104,-49 -164,-53 -106,-5 -225,37 -327,142 -97,100 -159,222 -182,352 -23,129 -7,266 50,395 160,362 605,616 941,807l58 33 27 16 -26 17c-135,87 -266,176 -383,274 -116,97 -219,203 -297,324 -105,164 -144,350 -123,503 11,77 36,145 76,197 39,51 92,86 159,100 67,13 148,4 243,-35 -48,0 -89,-5 -123,-16 -68,-22 -110,-64 -132,-118 -21,-52 -23,-116 -11,-183 20,-113 79,-239 146,-342 72,-108 155,-192 247,-254 92,-63 193,-104 300,-128l19 -5 4 19 222 942 222 -942 4 -19 19 5c107,24 208,65 300,128 92,62 175,146 247,254 67,103 126,229 146,342 12,67 10,131 -11,183 -22,54 -64,96 -132,118 -34,11 -75,16 -123,16 95,39 176,48 243,35 67,-14 120,-49 159,-100 40,-52 65,-120 76,-197 21,-153 -18,-339 -123,-503 -78,-121 -181,-227 -297,-324 -117,-98 -248,-187 -383,-274l-26 -17 27 -16 58 -33c336,-191 781,-445 941,-807 57,-129 73,-266 50,-395 -23,-130 -85,-252 -182,-352 -102,-105 -221,-147 -327,-142 -60,4 -117,22 -164,53 -48,31 -87,74 -112,127 -30,62 -40,138 -23,223 9,-57 29,-107 56,-147 28,-40 63,-71 103,-88l0 0c41,-17 86,-21 133,-8 63,17 128,63 189,149 65,91 96,177 99,268 3,90 -22,183 -68,287 -60,135 -154,234 -267,313 -113,78 -244,136 -378,190l-21 -31c134,-140 195,-271 207,-378 6,-59 -2,-109 -20,-150 -18,-39 -46,-69 -79,-87l0 0c-26,-13 -56,-19 -87,-17 27,30 46,61 57,93 17,47 18,95 7,140 -11,44 -34,86 -67,122 -36,40 -85,73 -141,93l-16 6 -8 -15c-59,-114 -104,-217 -138,-313 -34,-95 -58,-184 -75,-270l0 -3 -77 -1074zm-137 1095l120 -1334 38 0 94 1310c16,84 40,171 73,264 32,89 74,185 129,292 43,-18 81,-45 110,-77 28,-31 49,-67 58,-105 9,-38 8,-78 -6,-118 -13,-36 -37,-72 -74,-105l-26 -24 34 -9c54,-14 106,-7 149,15l0 0c42,22 75,58 97,106 21,46 30,103 23,169 -11,98 -59,214 -162,338 105,-44 206,-93 294,-154 108,-75 198,-169 254,-297 44,-99 67,-187 64,-271 -2,-83 -31,-163 -91,-247 -56,-77 -113,-120 -168,-135 -38,-10 -75,-7 -108,7l0 0c-33,15 -63,40 -86,74 -41,59 -62,143 -54,237l-36 9c-60,-139 -55,-263 -10,-360 29,-59 72,-107 126,-142 53,-34 116,-55 183,-59 117,-6 246,39 357,153 102,106 167,235 192,372 24,137 7,281 -53,417 -165,374 -616,631 -957,826l-31 17c127,82 250,167 360,259 120,100 225,209 305,334 110,171 151,367 129,528 -11,83 -39,158 -83,215 -45,58 -106,99 -182,114 -97,19 -218,-3 -360,-83l12 -36c89,14 158,10 208,-6 57,-18 91,-51 109,-95 18,-45 19,-102 8,-162 -19,-108 -75,-229 -140,-327 -69,-105 -149,-185 -236,-245 -83,-56 -173,-94 -269,-118l-236 1004 -38 0 -236 -1004c-96,24 -186,62 -269,118 -87,60 -167,140 -236,245 -65,98 -121,219 -140,327 -11,60 -10,117 8,162 18,43 52,77 109,95 50,16 119,20 208,6l12 36c-142,80 -263,102 -360,83 -76,-15 -137,-56 -182,-114 -43,-57 -72,-132 -83,-215 -22,-161 19,-357 129,-528 80,-125 185,-234 305,-334 110,-92 233,-177 360,-259l-31 -17c-341,-195 -792,-452 -957,-826 -60,-136 -77,-280 -53,-417 25,-137 90,-266 192,-372 111,-114 240,-159 357,-153 67,4 130,25 183,59 54,35 97,83 126,142 45,97 50,221 -10,360l-36 -9c8,-94 -13,-178 -54,-237 -23,-34 -53,-59 -86,-74 -33,-14 -70,-17 -108,-7 -55,15 -112,58 -168,135 -60,84 -89,164 -91,247 -3,84 20,172 64,271 56,128 146,222 254,297 88,61 189,110 294,154 -102,-124 -151,-240 -162,-338 -7,-66 2,-123 23,-169 22,-48 55,-84 97,-106l0 0c43,-22 95,-29 149,-15l34 9 -26 24c-37,33 -61,69 -74,105 -14,40 -15,80 -6,118 9,38 30,74 58,105 29,32 66,59 109,77 46,-110 82,-205 110,-290 30,-89 51,-168 67,-242z"/>
     </g>
    </g>
    <path class="fil6" d="M6298 13061c-261,255 -493,517 -698,784 -980,1274 -1348,2666 -1238,3975 109,1309 695,2537 1620,3482 196,200 407,387 631,559l-66 86c-229,-175 -443,-366 -642,-569 -943,-963 -1540,-2214 -1652,-3549 -111,-1335 263,-2753 1261,-4051 208,-271 444,-536 708,-795l76 78z"/>
    <path class="fil13" d="M6212 12738c0,-164 -37,-252 94,-362 122,-103 186,124 245,93 232,-122 288,-8 385,164 32,56 313,246 152,326 -64,32 -326,439 -490,234 -85,-106 -462,-300 -386,-455zm-81 8498c248,-19 362,-264 362,-502 0,-72 -158,3 -175,-129 -9,-65 -41,-140 -129,-140 -154,0 -233,-144 -338,24 -37,58 -133,216 -199,233 -201,52 -56,345 94,362 40,5 74,16 93,35 38,39 116,39 187,47 78,9 61,63 105,70zm-1016 -677c-83,-269 -404,-129 -618,-129 -215,0 -316,234 -176,374 36,35 96,57 140,93 38,30 59,71 94,105 95,95 487,186 584,47 54,-78 211,-191 163,-315 -29,-75 -134,-166 -187,-175zm-286 -852c-78,0 -96,21 -122,-105 -21,-99 -86,-277 23,-339 31,-17 92,-12 140,-12 76,0 130,-123 175,-151 103,-65 416,-44 432,81 11,81 -28,124 -35,187 -9,79 191,127 140,269 -58,162 -229,211 -338,280 -135,84 -460,-78 -415,-210zm-414 -806c0,-120 -58,-252 -105,-327 -59,-94 -22,-151 -199,-128 -89,12 -131,0 -233,0 -108,0 -119,3 -152,93 -49,137 -211,149 -117,339 18,35 50,85 70,105 44,44 3,171 70,198 296,121 580,-58 666,-280zm-117 -852c0,-157 -71,-213 -35,-350 18,-70 177,-95 222,-140 64,-64 103,-105 210,-105 106,0 111,58 187,58 168,0 257,30 257,198 0,79 -77,69 -82,117 -12,104 85,164 0,222 -82,56 -262,252 -409,175 -58,-30 -140,-41 -198,-70 -65,-33 -54,-82 -152,-105zm-420 -642c-114,-26 -274,7 -339,-58 -54,-55 -122,-55 -105,-187 11,-86 -11,-131 -11,-234 0,-167 48,-291 210,-291 118,0 154,70 303,70 238,0 234,144 234,361 0,266 -156,228 -292,339zm922 -794c138,0 243,-91 327,-175 110,-110 35,-129 35,-257 0,-63 153,-174 58,-233 -55,-35 -135,-66 -163,-140 -66,-170 -255,0 -362,0 -137,0 -369,285 -304,455 38,97 174,151 269,210 43,27 249,180 140,140zm-292 -1179c111,-92 199,-219 199,-362 0,-113 -161,-152 -246,-163 -201,-26 -96,-73 -198,-175 -49,-49 -183,-27 -222,11 -120,121 -283,4 -350,246 -48,171 99,444 222,513 78,45 254,51 373,35 116,-15 152,-85 222,-105zm776 -115c183,71 295,97 403,-37 29,-36 48,-91 82,-140 25,-36 186,-171 93,-245 -75,-60 -71,-502 -268,-350 -117,90 -197,-4 -292,-58 -209,-119 -280,221 -280,373 0,119 -3,193 58,269 62,76 191,104 204,188zm41 -1344c238,-313 -70,22 94,-70 74,-42 128,-198 128,-292 0,-113 -112,-91 -210,-117 -64,-16 -85,-152 -140,-186 -34,-22 -207,11 -222,23 -73,59 -5,105 -152,105 -195,0 -115,109 -163,234 -20,51 -58,50 -58,128 0,133 159,268 291,280 200,18 312,-128 432,-105zm677 -584c74,-136 73,-140 210,-140 208,0 99,175 211,175 309,0 198,178 198,362 0,124 15,79 -58,152 -42,42 -117,-18 -129,70 -33,254 -451,168 -548,12 -102,-163 29,-514 116,-631z"/>
    <path class="fil20" d="M6185 12732c0,-31 -1,-57 -2,-81 -6,-119 -10,-198 105,-296 95,-80 158,-8 209,50 20,23 37,42 41,40 250,-131 314,-17 415,162l0 0 7 12c6,11 28,32 55,58 47,45 106,101 134,156 29,59 26,113 -49,151l0 0c-11,5 -36,33 -68,67 -42,46 -94,103 -151,149 -101,81 -214,124 -304,10 -24,-29 -76,-69 -133,-113 -141,-107 -313,-239 -259,-365zm52 -84c1,28 3,58 3,90l-3 12c-44,88 113,207 240,304 60,46 114,87 142,122 64,80 150,44 228,-18 54,-43 105,-99 145,-143 36,-39 64,-70 84,-80l0 0c38,-19 39,-47 24,-78 -23,-46 -79,-99 -122,-141 -30,-28 -55,-52 -65,-70l-8 -13 0 0c-84,-150 -139,-246 -341,-140 -42,22 -73,-12 -108,-52 -35,-41 -79,-90 -133,-44 -95,80 -91,149 -86,251zm-104 8560c103,-9 182,-61 236,-136 65,-91 96,-215 96,-338 0,-7 -18,-10 -39,-13 -56,-7 -123,-16 -135,-112 -4,-32 -15,-66 -36,-89 -15,-17 -36,-27 -66,-27 -59,0 -106,-19 -149,-36 -62,-25 -110,-44 -166,46l-6 8c-41,67 -135,218 -209,237 -37,10 -59,29 -69,52 -10,20 -11,45 -7,71 5,27 16,56 33,82 32,54 83,98 133,104 22,3 44,7 62,14 19,7 35,17 47,29 25,25 79,30 134,35 14,1 27,3 37,4 58,6 75,32 90,55 4,6 8,12 14,14zm280 -105c-64,89 -157,150 -280,160l-6 0c-31,-5 -41,-21 -53,-39 -9,-13 -18,-28 -51,-31 -15,-2 -26,-3 -36,-4 -65,-6 -129,-12 -167,-51 -7,-6 -16,-12 -28,-16 -14,-5 -31,-9 -50,-11 -67,-8 -132,-63 -173,-130 -19,-32 -33,-67 -39,-101 -7,-36 -4,-72 10,-103 18,-37 51,-67 105,-81 53,-14 139,-152 177,-213l6 -9c80,-128 147,-102 232,-68 38,15 80,32 129,32 47,0 82,18 106,45 30,32 44,78 49,119 8,55 52,61 89,66 47,6 87,11 87,66 0,133 -35,269 -107,369zm-1324 -536c-55,-180 -240,-153 -413,-128 -63,10 -124,19 -179,19 -66,0 -120,24 -157,61 -18,18 -32,39 -42,62l0 0c-9,22 -14,47 -14,71 0,46 18,93 57,133 16,16 41,31 67,45 24,14 48,28 71,46 23,19 40,41 58,63l0 0c11,15 23,30 37,44 6,6 13,11 21,17 56,39 161,75 265,88 101,13 199,5 246,-42 4,-4 7,-8 10,-13 14,-20 35,-42 57,-66l0 -1c60,-65 133,-145 104,-223 -12,-31 -41,-67 -73,-97 -35,-32 -71,-56 -94,-61l-16 -3 -5 -15zm-421 -181c192,-28 395,-58 468,151 31,11 70,37 105,70 37,35 71,78 86,117 42,109 -44,203 -114,279l0 0c-20,23 -39,43 -52,62 -5,7 -11,13 -17,19 -60,60 -175,72 -291,58 -112,-14 -226,-54 -289,-97 -11,-8 -21,-16 -28,-23 -16,-16 -29,-33 -42,-49l0 0c-15,-20 -31,-39 -50,-55 -18,-15 -41,-28 -63,-41 -29,-16 -57,-32 -79,-54 -50,-50 -73,-111 -73,-171 0,-31 7,-63 19,-92l0 0c12,-30 31,-57 54,-80 46,-46 113,-77 195,-77 52,0 111,-9 171,-17zm131 -705c9,-1 18,-1 30,-1l38 1 -12 35c-7,18 -2,39 11,59 14,23 38,46 68,66 30,20 66,38 103,51l0 0c72,25 146,30 192,2 26,-16 55,-31 85,-47 94,-49 201,-105 243,-220 24,-66 -27,-110 -71,-149 -40,-35 -76,-67 -71,-113 3,-27 11,-49 19,-72 11,-32 22,-64 16,-108 -1,-8 -3,-15 -7,-21l-1 0c-18,-29 -61,-49 -114,-61 -56,-13 -121,-15 -177,-8 -38,5 -70,14 -91,28l-1 0c-11,7 -27,27 -44,49 -38,49 -82,107 -145,107 -5,0 -17,-1 -30,-1 -37,-1 -78,-2 -97,9 -75,42 -44,167 -21,259 4,18 8,34 11,50 18,86 29,86 66,85zm-2 54c-68,2 -90,1 -117,-128 -3,-14 -7,-30 -11,-48 -27,-109 -63,-257 48,-320 31,-17 80,-16 124,-15 8,0 15,0 29,0 36,0 72,-46 102,-85 20,-26 39,-50 59,-62l0 -1c28,-17 68,-29 113,-35 62,-7 133,-5 196,9 65,15 122,43 149,85l0 0c8,13 13,27 15,43 7,57 -6,95 -19,133 -7,20 -14,40 -16,60 -2,18 24,41 53,66 57,50 122,108 86,209 -49,135 -166,196 -269,249 -29,15 -56,29 -81,45 -61,38 -153,33 -239,3l0 0c-41,-14 -82,-34 -116,-57 -35,-25 -65,-53 -83,-82 -14,-23 -22,-46 -23,-69zm-409 -839c-1,-48 -12,-98 -27,-146 -20,-63 -49,-121 -74,-161 -16,-25 -25,-47 -33,-66 -17,-43 -27,-65 -139,-50l0 0c-60,7 -98,5 -146,3 -25,-1 -53,-3 -91,-3 -49,0 -76,1 -90,9 -14,8 -22,27 -36,66 -20,54 -53,89 -84,121 -47,49 -87,91 -34,197l0 0c8,17 21,38 33,57 12,17 23,32 32,41 26,26 29,66 32,107 3,38 6,76 29,85l0 0 10 4 0 0c136,53 269,38 379,-15 110,-53 196,-145 237,-246l0 0 2 -3zm25 -162c17,54 29,112 29,167l-2 10 -3 8 0 1c-47,113 -143,215 -265,274 -122,59 -270,75 -422,17l0 0 -11 -5 0 0c-53,-21 -58,-77 -62,-130 -2,-31 -5,-62 -17,-74 -11,-11 -24,-29 -38,-49 -14,-21 -28,-44 -37,-63l0 0c-70,-140 -17,-195 44,-258 27,-29 56,-59 72,-102 18,-52 31,-79 59,-95 26,-15 59,-16 118,-16 37,0 67,1 94,3 45,2 81,4 136,-3l0 0c154,-20 168,15 196,83 7,17 15,36 29,58 27,43 58,106 80,174zm-142 -685c0,-65 -13,-112 -25,-155 -16,-63 -31,-117 -9,-202 14,-55 83,-84 146,-110 35,-15 68,-28 83,-43l2 -2 0 0c68,-68 111,-111 227,-111 65,0 96,20 125,37l0 0c18,11 35,22 62,22 89,0 158,8 206,41 52,34 78,90 78,184 0,60 -32,80 -60,98l0 0c-11,8 -21,14 -22,22 -4,36 8,68 18,96 21,55 38,99 -30,145 -15,11 -34,27 -56,44 -98,81 -246,204 -380,133 -28,-14 -62,-24 -97,-34 -35,-10 -70,-20 -101,-36l0 0c-32,-15 -47,-34 -63,-52 -17,-19 -34,-39 -83,-51l-21 -5 0 -21zm28 -169c11,42 24,87 26,148 51,16 71,39 91,63 12,14 24,28 46,39l0 0c26,13 59,22 92,32 37,10 75,21 107,38 102,54 234,-55 321,-126 23,-19 43,-36 60,-47 32,-23 22,-49 9,-82 -12,-34 -27,-72 -21,-121 4,-33 24,-47 47,-61l0 0c16,-11 34,-22 34,-53 0,-73 -18,-116 -53,-139 -37,-25 -97,-32 -176,-32 -43,0 -66,-14 -91,-29l0 0c-22,-14 -46,-29 -96,-29 -94,0 -131,37 -188,94l0 0 -3 3c-22,22 -60,37 -100,54 -51,21 -107,45 -115,74 -18,70 -5,119 10,174zm-427 -447c-40,-9 -88,-10 -135,-12 -86,-2 -169,-5 -217,-53 -12,-12 -25,-22 -38,-31 -49,-34 -90,-63 -75,-179 6,-44 2,-78 -3,-117 -4,-32 -9,-67 -9,-113 0,-88 14,-166 49,-223l0 0c37,-60 97,-96 189,-96 60,0 101,17 143,34l0 0c42,18 87,36 160,36 261,0 261,151 261,379l0 0 0 10c0,205 -84,244 -186,292 -38,18 -78,37 -116,68l-10 8 -13 -3zm-133 -66c45,1 90,3 132,11 40,-30 79,-49 117,-67 84,-40 154,-73 154,-243l0 -10 1 0c0,-195 0,-324 -207,-324 -84,0 -134,-21 -181,-40l0 0c-37,-16 -72,-30 -122,-30 -71,0 -116,26 -143,70l0 0c-29,47 -40,115 -40,194 0,44 4,77 8,107 5,42 10,79 3,130 -11,83 18,104 52,128 15,10 30,21 46,36 33,33 105,36 180,38zm1103 -784c46,-7 89,-25 127,-49 52,-32 98,-74 139,-115 62,-63 55,-90 43,-132 -7,-27 -16,-60 -16,-106 0,-31 22,-63 46,-97 7,-11 14,-21 21,-32l0 0c20,-32 33,-63 4,-81 -11,-7 -22,-13 -33,-19l0 0c-54,-31 -115,-65 -141,-135 -35,-89 -123,-53 -205,-20 -47,20 -93,38 -132,38 -12,0 -26,3 -40,8 -54,21 -116,76 -165,143 -48,66 -83,144 -83,212 0,20 3,38 10,55 25,66 109,113 187,156 25,14 49,28 70,41 26,16 109,77 152,116 6,6 11,12 16,17zm156 -3c-42,26 -89,46 -140,55 -4,6 -13,10 -27,12l0 0c-9,1 -22,-2 -40,-8l4 -27 -6 -6c-40,-37 -119,-95 -143,-110 -22,-13 -45,-26 -68,-39 -87,-48 -179,-100 -212,-184 -9,-24 -13,-49 -13,-75 0,-80 39,-169 94,-244 54,-75 125,-137 189,-161 20,-8 40,-13 59,-13 29,0 69,-16 111,-33 107,-43 222,-90 276,51 20,51 72,80 118,106l0 0c12,7 24,14 35,21 68,42 48,99 13,155l0 0c-7,12 -15,23 -23,34 -18,27 -36,53 -36,67 0,40 8,68 14,92 17,61 28,100 -57,184 -43,43 -91,88 -148,123zm-503 -1170c55,-46 103,-102 137,-163 29,-54 47,-113 47,-175 0,-35 -21,-61 -51,-81 -50,-34 -123,-49 -170,-55 -143,-19 -152,-49 -166,-101 -7,-21 -14,-48 -48,-82 -17,-16 -49,-22 -83,-20 -42,2 -84,15 -100,32 -54,53 -112,64 -168,75 -72,14 -140,28 -176,158 -20,73 -1,169 37,257 44,102 112,191 172,226 33,18 86,29 144,35 72,6 150,4 213,-4 62,-8 100,-34 134,-59 25,-17 48,-34 78,-43zm185 -137c-38,69 -93,131 -154,182l-11 5c-23,7 -44,22 -67,38 -39,27 -82,58 -158,68 -66,9 -149,11 -224,4 -66,-6 -127,-20 -166,-42 -71,-40 -148,-140 -196,-251 -42,-98 -63,-207 -39,-294 45,-162 129,-179 217,-196 49,-9 98,-19 140,-61 25,-25 82,-44 136,-47 48,-3 96,7 124,36 44,43 54,78 62,106 8,29 14,47 121,61 53,7 135,24 193,64 44,29 76,70 76,126 0,72 -21,140 -54,201zm627 26c82,32 149,53 206,52 56,-2 104,-26 153,-86 14,-16 25,-39 38,-63 12,-25 26,-51 43,-75l0 0c5,-8 15,-19 28,-32 12,-14 28,-31 43,-50l0 0c35,-44 65,-96 27,-127l0 0c-32,-25 -49,-92 -69,-166 -18,-69 -37,-145 -68,-185 -21,-27 -51,-34 -98,1 -109,85 -187,33 -268,-22 -18,-12 -36,-24 -53,-34 -26,-14 -49,-21 -69,-21 -21,0 -40,8 -56,20l0 0c-18,14 -34,34 -48,58 -48,86 -67,215 -67,293l0 0 0 16c0,103 0,171 52,236 23,27 58,49 91,71 51,32 100,62 115,114zm207 106c-69,1 -146,-24 -240,-61l-15 -6 -2 -15c-6,-37 -48,-64 -94,-92 -37,-24 -76,-49 -104,-83 -64,-80 -64,-155 -64,-270l0 -16 0 0c0,-84 21,-225 74,-319 17,-30 38,-56 62,-75l0 0c26,-20 55,-31 89,-31 29,0 61,9 95,28 20,11 39,24 57,36 65,44 127,85 205,25 79,-61 133,-45 174,8 37,49 59,130 78,204 17,65 32,123 50,138l0 0c74,59 33,139 -19,203l1 0c-16,19 -33,37 -47,52 -10,12 -19,21 -23,27l0 0c-15,22 -28,46 -39,68 -14,27 -27,53 -44,74 -60,73 -122,103 -194,105zm-200 -1459c10,-13 19,-23 28,-32 1,-18 12,-40 25,-59 22,-29 56,-48 69,-38l0 0c6,4 6,18 -5,44 18,-20 35,-49 50,-81 24,-56 39,-120 39,-167 0,-61 -53,-68 -114,-77 -24,-3 -50,-7 -76,-13 -47,-13 -72,-63 -96,-113 -17,-33 -33,-66 -51,-77 -9,-5 -39,-4 -74,-1 -54,6 -111,17 -117,22 -21,17 -27,34 -33,47 -15,39 -24,64 -136,64 -109,0 -112,42 -116,100 -3,35 -5,74 -22,116 -9,24 -20,38 -31,51 -13,15 -25,29 -25,68 0,56 33,114 82,160 53,51 122,87 185,93 101,9 180,-28 249,-60 59,-28 112,-52 169,-47zm88 -83c2,-1 2,-2 1,-3l0 0c-3,-2 -3,0 -1,3zm-23 85c-10,13 -20,28 -32,43l-10 14 -17 -3c-46,-9 -96,14 -152,40 -75,35 -161,76 -277,65 -75,-7 -157,-49 -218,-108 -58,-55 -99,-127 -99,-199 0,-58 19,-80 38,-103 8,-10 17,-20 23,-35 13,-35 15,-70 17,-101 7,-88 11,-150 171,-150 74,0 79,-12 86,-30 7,-19 17,-43 49,-69 12,-9 83,-27 145,-34 45,-4 88,-4 108,9 32,19 52,59 72,99 19,39 38,78 61,84 22,6 46,9 70,12 85,12 160,23 160,131 0,54 -16,126 -44,189 -24,55 -58,104 -98,127 -22,12 -40,18 -53,19zm600 -571l3 -5c77,-144 79,-148 230,-148 142,0 159,70 173,128 6,25 11,47 38,47 202,0 245,71 245,174 0,31 -5,64 -10,100l0 0c-5,37 -10,76 -10,115 0,25 1,39 1,50 1,27 1,40 -4,54l0 0c-6,15 -14,22 -30,36 -8,7 -18,17 -33,31 -25,25 -53,25 -80,26l0 0c-19,0 -37,0 -41,28 -6,50 -25,88 -53,117 -41,41 -99,62 -162,67 -61,5 -127,-6 -188,-26 -84,-28 -159,-77 -195,-135 -48,-75 -50,-184 -29,-294 27,-145 93,-294 145,-365zm51 21l-4 6 -2 4c-49,64 -111,205 -137,343 -18,98 -17,194 22,256 29,47 93,88 166,113 54,18 113,27 167,23 51,-4 96,-20 127,-51 20,-21 34,-49 38,-85 10,-76 51,-76 94,-77l1 0c15,0 32,0 41,-9 15,-15 27,-26 36,-34 10,-8 14,-12 15,-14l0 0c2,-4 1,-14 1,-33 -1,-15 -1,-34 -1,-52 0,-41 5,-83 11,-122l0 0c4,-33 8,-64 8,-93 0,-70 -33,-119 -190,-119 -69,0 -79,-41 -91,-89 -9,-40 -21,-87 -120,-87 -118,0 -120,3 -182,120z"/>
    <path class="fil21" d="M6002 13391c0,28 -11,160 12,175 36,26 93,8 93,59 0,127 -71,396 12,478 140,140 -252,117 -327,117 -91,0 -138,-89 -175,-163 -71,-142 -124,-302 23,-421 63,-49 289,-268 362,-245zm469 -432c0,-58 -77,-265 -155,-196 -54,48 -558,-204 -424,149 125,331 186,411 565,411 241,0 189,-54 189,-229 0,-36 -68,-22 -68,-121 0,-53 -104,-48 -107,-14zm-690 8020c85,71 75,43 140,23 87,-26 55,60 198,47 23,-2 70,-57 105,-35 72,45 56,58 175,58 54,0 35,138 35,187 0,144 -102,210 -245,210 -117,0 -172,-39 -268,-81 -164,-73 -227,-81 -316,-222 -68,-109 122,-325 176,-187zm-502 -455c-9,-109 -253,-196 -292,-94 -46,119 22,161 -105,199 -33,10 35,139 35,187 0,63 -52,123 0,175 72,71 129,181 210,221 220,110 350,-96 350,-280 0,-93 -20,-197 -58,-245 -30,-36 -109,-192 -140,-163zm-537 -829c54,12 118,17 175,12 134,-14 86,-89 187,11 56,57 181,29 256,70 104,58 147,216 70,292 -167,168 -432,55 -607,-12 -90,-35 -153,-136 -163,-221 -4,-39 -29,-100 0,-129 8,-8 88,-75 82,-23zm-140 -479c0,-78 22,-305 -24,-362 -42,-52 -121,-107 -175,-128 -41,-16 -81,-12 -128,-12 -47,0 -64,56 -82,59 -62,8 -128,8 -128,93 0,135 -128,116 -152,210 -59,225 1,339 245,339 111,0 150,-33 210,-82 66,-53 191,-44 234,-117zm-281 -1447c0,172 148,171 257,117 108,-55 71,102 164,128 198,55 281,166 175,385 -40,81 -78,90 -140,129 -88,54 -196,-126 -257,-164 -123,-77 -315,-66 -339,-245 -8,-61 -23,-132 -23,-222 0,-142 140,-92 163,-128zm-268 -782c-157,-34 -210,-47 -210,128 0,71 -125,111 -175,152 -24,19 -36,179 -12,198 91,73 90,174 280,152 108,-12 339,-341 350,-444 11,-88 55,-229 -35,-280 -126,-71 -180,28 -198,94zm420 -1004c-95,206 240,59 257,187 21,164 -2,143 140,198 139,53 237,236 128,409 -178,285 -434,3 -548,-164 -74,-107 -105,-193 -105,-350 0,-155 -28,-292 128,-280zm-210 -631c81,-243 133,-60 269,-128 92,-46 163,-178 163,47 0,201 -81,364 -222,443 -83,47 -179,164 -303,164 -154,0 -149,-6 -210,-105 -25,-40 -181,-315 -12,-315 177,0 151,-117 315,-106zm887 -817c-77,7 -48,90 -35,140 36,139 196,54 140,199 -10,25 -45,105 -23,140 19,31 63,32 70,82 28,217 -26,264 -175,385 -114,92 -209,37 -269,-82 -61,-123 -87,-392 35,-490 91,-72 217,-364 257,-374zm-233 -583c67,-125 161,-45 245,-129 94,-93 51,-74 152,-11 64,39 163,26 163,116 0,106 -134,199 -187,292 -45,81 -167,59 -280,59 -205,0 -207,-41 -292,-176 -144,-230 95,-163 199,-151z"/>
    <path class="fil22" d="M6030 13391c0,4 -1,14 -1,26l0 0c-2,42 -6,123 0,127l1 0c8,6 22,9 34,12l1 0c37,8 70,15 70,69 0,38 -6,88 -13,142 -15,123 -33,268 16,317 49,48 49,86 19,115 -54,55 -247,51 -335,49 -10,0 -18,-1 -30,-1 -54,0 -95,-26 -128,-63l0 0c-30,-34 -52,-77 -71,-115 -37,-74 -69,-153 -73,-230 -4,-81 22,-158 104,-224 10,-8 28,-24 49,-42 96,-84 264,-231 338,-208l19 7 0 19zm-31 198c-31,-21 -27,-118 -25,-171 -59,16 -188,128 -265,195 -21,19 -39,34 -52,45 -65,52 -86,114 -83,178 4,68 33,140 67,209 18,35 38,74 64,103l0 0c23,26 51,45 87,45l31 1c81,1 258,5 296,-33 6,-6 1,-18 -19,-38 -68,-68 -49,-228 -32,-363 6,-52 12,-100 12,-135 0,-10 -13,-13 -27,-16l0 0c-18,-4 -37,-8 -54,-20l0 0zm444 -630c0,-23 -14,-76 -37,-120 -11,-21 -23,-39 -36,-51 -9,-8 -17,-13 -24,-11 -4,0 -8,3 -12,7l0 0c-27,23 -90,9 -166,-8 -83,-18 -183,-41 -237,-20 -36,13 -49,54 -14,146 61,161 106,261 179,318 73,58 178,76 361,76 144,0 166,-19 166,-74 0,-15 -1,-30 -2,-48 -1,-23 -3,-51 -3,-80 0,-1 -4,-2 -9,-6 -25,-16 -58,-39 -58,-115 0,-4 -4,-7 -9,-9 -5,-2 -11,-3 -17,-3 -6,-1 -12,0 -18,1 -5,1 -9,-2 -9,0l-55 -3zm11 -145c16,31 29,67 36,96l5 -1c11,-2 22,-3 33,-3 11,1 22,3 32,7 26,9 46,28 46,60 0,47 19,61 34,71 18,12 33,22 33,50 0,30 1,55 3,78 1,19 2,36 2,50 0,95 -29,129 -221,129 -196,0 -311,-22 -394,-88 -84,-65 -132,-172 -197,-342 -49,-130 -20,-191 46,-216 69,-26 177,-2 268,18 60,14 112,25 118,20l0 0c11,-10 23,-17 36,-19 27,-7 51,4 73,24 18,16 34,40 47,66zm-651 8148c48,40 54,37 72,29 9,-4 21,-10 38,-15 54,-16 74,0 98,20 18,14 40,32 106,26 1,0 9,-6 19,-12l0 0c29,-19 65,-43 103,-19 15,10 28,19 39,27 28,20 37,27 121,27 54,0 66,61 66,125 0,18 -1,39 -2,57 -1,12 -2,23 -2,32 0,78 -27,136 -73,175 -49,42 -118,62 -199,62 -101,0 -158,-27 -230,-61 -16,-7 -32,-15 -49,-23l0 0c-25,-11 -48,-20 -69,-29 -120,-51 -179,-76 -259,-203 -37,-60 -13,-142 31,-200 15,-21 33,-39 52,-51 20,-14 42,-22 63,-22 31,1 58,17 75,55zm94 79c-43,19 -55,24 -134,-41l-8 -11c-7,-19 -17,-27 -28,-27 -9,-1 -20,4 -32,12 -14,9 -27,23 -39,38 -32,43 -51,101 -27,139 70,113 124,135 233,182 21,9 44,18 70,30l0 0c19,8 35,16 50,23 66,31 118,56 207,56 68,0 125,-16 164,-49 34,-29 54,-73 54,-134 0,-8 1,-20 1,-35 1,-16 2,-34 2,-54 0,-36 -2,-70 -11,-70 -101,0 -114,-10 -153,-38 -9,-7 -20,-15 -36,-25 -8,-5 -28,8 -44,19l-1 0c-15,10 -29,19 -43,20 -88,8 -120,-17 -145,-38 -12,-10 -22,-18 -49,-10 -13,4 -23,9 -31,13zm-645 -515c-3,-28 -28,-55 -61,-76 -25,-16 -53,-27 -81,-34 -26,-5 -51,-6 -70,0 -13,4 -23,12 -28,24 -15,38 -16,69 -18,93 -3,59 -5,92 -105,122 -7,2 13,11 19,28 3,13 8,27 13,41 11,34 23,68 23,92 0,25 -7,48 -13,71 -9,31 -18,62 5,84 27,27 52,59 76,91l0 0c40,51 81,103 127,126l0 0c39,19 74,28 105,28 38,0 71,-12 99,-33 28,-21 52,-52 69,-87l0 0c25,-49 38,-108 38,-164 0,-47 -5,-97 -16,-140 -8,-37 -21,-69 -36,-88 -10,-11 -22,-30 -35,-52 -20,-31 -43,-68 -63,-91 -6,-6 2,-21 -3,-17l-41 36 -4 -54zm-32 -122c37,24 67,55 80,90 13,5 27,16 41,31 23,26 47,65 68,98 13,21 24,39 31,47 21,26 37,65 47,110 12,47 17,101 17,152 0,64 -15,131 -43,188l0 0c-21,43 -50,80 -86,107 -37,27 -80,43 -131,43 -39,0 -82,-10 -129,-33l0 0c-57,-29 -101,-85 -146,-142l0 0c-23,-30 -47,-60 -71,-85 -46,-46 -33,-91 -19,-138 5,-19 11,-38 11,-56 0,-15 -11,-45 -21,-75 -5,-14 -9,-29 -13,-42 -14,-47 -17,-86 18,-96 63,-19 64,-38 66,-73 2,-28 4,-63 21,-109 12,-29 34,-48 62,-57 29,-9 64,-8 99,-1 34,8 69,22 98,41zm-454 -732c22,4 45,7 68,8 27,2 55,2 80,0 47,-5 68,-18 83,-27l0 0c40,-24 50,-30 126,46 24,24 71,29 119,34 46,5 93,10 131,31 19,11 35,23 50,38 34,34 58,80 68,127 11,47 6,96 -16,136 -7,13 -15,24 -25,34 -174,174 -434,73 -615,3l-21 -8 0 0c-49,-19 -90,-54 -120,-95 -34,-46 -55,-100 -61,-149 -1,-9 -3,-19 -5,-30 -9,-41 -19,-89 13,-121 5,-5 33,-29 58,-42 9,-5 19,-8 28,-9 17,-1 31,5 38,22l1 2zm65 63c-33,-2 -65,-7 -95,-14l-24 -5 0 -4c-15,10 -30,22 -33,25 -11,12 -4,44 2,72 2,13 5,24 6,35 5,40 23,84 51,122 25,34 57,63 95,77l0 0 22 8c167,65 408,158 556,10 7,-7 12,-14 17,-22 15,-28 18,-64 10,-99 -8,-37 -27,-73 -54,-100 -11,-11 -23,-20 -37,-28 -29,-16 -70,-20 -110,-25 -58,-6 -115,-12 -153,-50 -46,-46 -48,-44 -59,-37l0 0c-19,11 -47,28 -105,34 -29,3 -60,3 -89,1l0 0zm-257 -527c1,-15 2,-35 3,-58 4,-96 10,-242 -20,-278 -19,-24 -46,-48 -75,-70 -31,-22 -63,-41 -89,-51 -28,-11 -59,-10 -94,-10l-24 1c-17,0 -30,16 -40,29 -12,14 -21,26 -38,29l-1 0 -15 2 0 0c-45,5 -89,10 -89,64 0,91 -48,122 -94,153 -26,17 -51,34 -59,64 -27,105 -28,182 5,232 33,48 102,73 214,73 100,0 136,-30 191,-74l0 0 2 -2 0 0c33,-26 74,-39 116,-51 44,-12 87,-25 107,-53zm57 -56c-1,25 -2,46 -2,64l-4 14c-30,51 -86,67 -143,84 -36,10 -73,21 -97,40l0 0 -2 2 0 0c-64,52 -106,86 -225,86 -132,0 -215,-32 -259,-97 -42,-64 -44,-155 -12,-276 13,-50 47,-73 82,-96 34,-22 68,-45 68,-107 0,-102 68,-110 137,-118l0 0 16 -2 0 0c4,-1 -2,-4 2,-9 17,-21 40,-50 83,-50 17,0 19,0 23,0 41,-1 76,-1 115,14 30,11 66,32 101,58 32,23 63,51 85,78 43,53 36,211 32,315zm-282 -1383c0,31 5,55 14,73l0 0c8,17 21,29 36,37 15,8 34,12 55,12 36,0 76,-12 112,-30l0 0c69,-34 97,-8 119,36 4,9 8,17 11,25l0 0c12,27 25,58 53,66 106,29 182,75 219,144 36,70 31,161 -27,279 -35,73 -70,93 -118,121l0 0c-10,5 -20,11 -32,19 -80,50 -160,-36 -225,-106 -24,-25 -45,-48 -60,-58 -36,-22 -80,-37 -122,-52 -107,-37 -211,-72 -230,-213 -1,-10 -4,-28 -6,-46l0 0c-8,-51 -17,-109 -17,-179 0,-119 77,-130 136,-138 16,-2 31,-4 32,-5l50 15zm-35 97c-8,-16 -14,-35 -17,-56 -7,1 -15,2 -23,3 -39,5 -89,12 -89,84 0,66 9,122 16,171l0 0c3,14 5,28 7,48 14,106 103,136 193,168 46,16 92,31 133,57 22,13 45,39 72,67 51,55 114,123 156,96 12,-7 23,-13 34,-19l0 -1c40,-22 68,-39 96,-97 49,-101 56,-175 27,-230 -28,-54 -93,-91 -185,-117 -53,-15 -71,-58 -88,-97l0 0c-3,-8 -7,-16 -10,-22 -7,-16 -18,-25 -46,-11l0 0c-42,21 -91,35 -136,35 -29,0 -56,-5 -80,-18 -25,-13 -46,-33 -60,-61l0 0zm-267 -853l-3 0c-51,-11 -90,-20 -118,-20 -40,0 -56,28 -56,122 0,66 -70,105 -131,139 -21,12 -40,23 -53,33 -7,10 -12,45 -15,81 -2,36 -1,69 4,78 27,22 46,45 64,67 39,49 73,91 194,77 42,-5 110,-72 175,-154 77,-98 146,-214 151,-266 2,-15 5,-33 8,-51 13,-77 28,-170 -29,-202l0 0c-15,-8 -28,-14 -40,-17 -25,-7 -45,-4 -61,4 -16,9 -29,25 -39,42 -8,16 -15,33 -19,48l-7 25 -25 -6zm-121 -74c29,0 65,7 109,16 4,-12 10,-24 16,-36 14,-25 34,-48 60,-62 27,-15 60,-21 101,-10 16,5 34,12 53,23l0 0c90,51 71,164 56,257 -3,17 -6,34 -8,50 -6,60 -80,188 -163,293 -72,91 -153,168 -211,174 -151,17 -193,-35 -242,-97 -17,-20 -35,-42 -58,-61l0 0c-2,-1 -4,-3 -6,-5l0 -1c-15,-18 -19,-67 -16,-115 3,-47 13,-95 27,-113l0 0c2,-2 4,-4 7,-6l0 0c17,-14 39,-26 62,-39 48,-27 103,-58 103,-92 0,-136 30,-176 110,-176zm-253 505c0,0 0,0 0,0l0 0 0 0zm825 -1450c-21,46 -16,65 1,73 21,10 56,11 91,13 77,4 157,8 167,86l0 0c3,24 5,42 7,58 4,40 6,61 14,72 8,11 29,19 75,36l0 0 27 11 0 0c17,6 33,14 48,24 55,34 101,88 125,152 24,64 27,138 -2,213l0 0c-7,20 -17,39 -29,59 -29,45 -59,77 -91,99 -43,30 -89,39 -134,35 -45,-4 -88,-22 -130,-48 -97,-61 -185,-168 -240,-249 -38,-55 -65,-106 -83,-163 -18,-58 -26,-121 -26,-202 0,-25 -1,-43 -1,-61 -1,-37 -2,-71 0,-102 7,-92 39,-153 158,-144l39 3 -16 35zm-22 123c-38,-18 -58,-49 -43,-105 -44,9 -58,44 -62,93 -2,29 -1,61 0,96 0,22 1,45 1,62 0,76 7,134 24,185 16,52 41,98 76,150 52,76 134,177 224,233 35,22 71,37 106,40 33,3 67,-4 99,-26 25,-17 50,-44 74,-83 11,-17 19,-33 26,-50l0 0c23,-61 21,-122 1,-174 -20,-52 -57,-97 -102,-125 -13,-8 -26,-14 -40,-20l0 0 -27 -10 0 0c-56,-21 -82,-31 -100,-56 -15,-22 -18,-48 -23,-97 -2,-17 -4,-36 -7,-57l0 0c-4,-33 -61,-36 -116,-39l0 0c-41,-2 -81,-4 -111,-17zm-232 -793c55,-153 103,-139 169,-121 29,8 64,18 106,-3 22,-11 43,-27 62,-42 28,-22 53,-42 79,-42 39,0 62,38 62,155 0,104 -21,200 -61,280 -40,80 -99,144 -175,187 -22,13 -48,33 -75,54 -68,53 -145,113 -241,113 -160,0 -164,-6 -224,-102l0 0 -10 -16c-12,-19 -54,-94 -77,-167 -12,-35 -18,-71 -15,-102 4,-36 20,-66 57,-80 13,-5 29,-8 47,-8 79,0 113,-26 146,-51 37,-28 72,-56 150,-55zm154 -68c-39,-12 -68,-20 -109,105l-7 20 -21 -1c-72,-6 -102,18 -135,42 -39,31 -81,63 -178,63 -12,0 -21,1 -28,4 -14,5 -20,18 -22,34 -2,23 3,51 13,81 21,67 60,136 72,154l9 16 0 0c45,72 48,77 178,77 78,0 147,-55 208,-102 28,-22 55,-43 82,-58 65,-37 117,-94 152,-165 36,-72 56,-159 56,-255 0,-76 -3,-100 -8,-100 -7,0 -25,14 -46,30 -21,16 -44,34 -70,47 -62,31 -107,18 -146,8zm673 -664c0,-43 16,-79 77,-84l8 54c-3,1 -14,17 -29,42 2,17 7,36 11,52l0 0 3 12 0 1c14,50 50,64 80,75 56,20 99,36 60,140l0 0 -3 8 -1 0c-10,27 -35,88 -22,108 4,7 13,13 22,18l0 0c23,16 46,31 52,74l0 0c15,115 8,186 -24,245 -31,59 -84,102 -161,165 -17,14 -34,25 -50,33 -42,21 -83,24 -120,13 -37,-10 -69,-35 -97,-69 -16,-19 -30,-42 -43,-68l0 0c-36,-72 -61,-192 -53,-301 7,-90 35,-174 96,-222 44,-36 103,-138 152,-224l0 0c15,-26 29,-50 42,-72zm18 90l0 0 -2 -9 -11 18 0 0c-52,90 -113,197 -166,239 -47,38 -69,107 -75,183 -7,100 15,209 48,274l0 0c11,22 23,42 36,58 21,26 45,44 70,51 24,7 51,5 81,-10 13,-7 26,-15 40,-26 72,-59 121,-99 147,-148 26,-49 31,-110 18,-213l0 0c-2,-18 -15,-27 -28,-35l0 0c-14,-9 -27,-19 -38,-36 -27,-43 4,-121 18,-156l0 0 3 -8 0 0c20,-52 -1,-59 -28,-69 -42,-16 -93,-34 -113,-113zm-187 -760c42,-66 92,-72 143,-79 33,-4 67,-8 98,-39 15,-16 23,-24 29,-30 27,-28 39,-41 59,-42 18,-1 28,7 47,21 11,9 27,21 50,35 18,11 40,18 62,25 59,17 114,34 114,115 0,78 -58,144 -115,209 -29,33 -58,66 -75,96 -46,81 -142,78 -243,74 -19,-1 -38,-1 -61,-1 -200,0 -222,-36 -293,-152l0 0c-5,-9 -10,-18 -22,-36 -68,-109 -59,-166 -14,-194 46,-29 129,-16 195,-6l0 0c9,2 18,3 26,4zm149 -25c-40,5 -79,10 -110,68l-9 16 -18 -2c-15,-2 -30,-4 -47,-7l0 0c-57,-9 -128,-20 -157,-2 -18,11 -15,44 31,119 5,8 14,22 23,36l0 0c58,97 76,126 246,126 18,0 40,1 62,2 85,3 166,6 195,-46 20,-37 51,-71 81,-106 50,-57 102,-115 102,-173 0,-41 -36,-52 -76,-63 -25,-8 -51,-16 -75,-30 -25,-16 -42,-29 -54,-39 -8,-6 -7,-10 -10,-10 -1,0 -7,8 -23,25 -10,10 -22,23 -31,32 -43,43 -87,49 -130,54z"/>
    <path class="fil7" d="M15124 19649c67,320 -450,639 -12,1137l-5 335c-55,61 -112,122 -170,181 -196,200 -406,387 -631,559l67 86c200,-153 389,-318 566,-493l235 -103c657,276 861,-327 1181,-389 -434,-117 -902,-7 -1190,321l-103 46c164,-171 317,-351 458,-538l1 1 286 -206c700,133 773,-500 1073,-628 -449,-22 -883,183 -1096,564l-144 104c197,-280 368,-576 512,-883l200 -196c711,27 689,-610 967,-781 -448,45 -846,313 -999,721l-95 93c121,-281 220,-571 294,-868l183 -216c711,-41 628,-673 889,-870 -442,87 -813,392 -926,813l-112 133c54,-244 92,-492 113,-743l3 -40 141 -276c683,-202 458,-798 667,-1049 -410,186 -702,567 -717,1003l-81 159c14,-306 3,-615 -35,-925l109 -266c665,-256 394,-833 581,-1100 -393,218 -654,622 -634,1057l-74 181c-45,-305 -116,-610 -215,-914l71 -292c619,-352 265,-881 411,-1173 -357,274 -554,712 -469,1140l-52 210c-76,-219 -167,-437 -273,-653l43 -325c576,-419 165,-905 277,-1212 -324,312 -472,769 -339,1185l-33 248c-117,-229 -251,-456 -403,-679l-26 -244c463,-541 -50,-919 -12,-1243 -243,379 -280,858 -55,1231l16 144c-52,-73 -106,-145 -161,-218 -126,-163 -262,-325 -407,-484 37,-612 -562,-685 -878,-914 133,261 142,871 785,974 149,162 286,325 414,491 93,120 180,242 262,365l-84 -69c-188,-393 -608,-625 -1058,-631 292,146 325,783 1032,694l225 185c146,235 273,473 382,713l-90 -90c-150,-409 -547,-680 -994,-728 276,173 250,810 962,788l191 191c95,226 173,454 235,682l-148 -147c-150,-409 -547,-680 -994,-728 277,173 250,809 962,788l212 211c83,332 133,664 152,994l-124 -198c-53,-433 -378,-787 -802,-936 230,232 59,845 757,986l175 280c7,210 2,419 -15,625 -11,126 -26,251 -45,375l-65 -180c41,-435 -201,-850 -584,-1085 175,275 -123,838 530,1125l97 271c-61,343 -156,677 -280,1000l-30 -240c133,-415 -14,-873 -337,-1185 112,306 -300,792 275,1212l43 338c-113,275 -249,541 -404,797l3 -215c191,-392 111,-865 -164,-1221 67,319 -410,742 99,1239l-5 304c-154,241 -327,472 -518,691l5 -278c246,-329 221,-763 -54,-1119z"/>
    <g>
     <path class="fil23" d="M6792 21923c4,-296 -1118,133 -1781,114 256,169 671,295 953,366 -273,181 -459,488 -713,720 715,-4 1394,-385 1616,-316 -25,-294 -50,-589 -75,-884z"/>
     <path class="fil13" d="M5250 22094c231,108 509,190 730,246l143 36 -123 81c-223,149 -394,389 -584,593 275,-23 545,-95 809,-175 127,-38 397,-136 571,-140 -23,-261 -73,-553 -70,-813 0,-3 0,-8 -2,-12 -30,-47 -277,-16 -322,-10 -234,33 -468,87 -701,129 -145,26 -299,52 -451,65z"/>
     <path class="fil23" d="M6337 22631c-151,-280 347,-422 455,-708 172,379 204,865 241,1168 -198,-67 -119,-166 -317,-233 -126,-76 -253,-152 -379,-227z"/>
     <path class="fil13" d="M6782 22071c-43,55 -95,104 -146,150 -73,64 -241,187 -260,285 -5,28 0,54 11,78 119,72 238,143 357,214 85,30 131,65 183,139 9,12 18,23 26,32 -34,-301 -67,-613 -171,-898z"/>
     <path class="fil23" d="M14194 21923c-5,-296 1118,133 1781,114 -256,169 -672,295 -954,366 274,181 459,488 714,720 -715,-4 -1394,-385 -1617,-316 25,-294 50,-589 76,-884z"/>
     <path class="fil13" d="M15736 22094c-153,-13 -307,-39 -452,-65 -232,-42 -467,-96 -700,-129 -46,-6 -293,-37 -323,10 -2,4 -2,9 -2,12l0 3 0 4c-23,269 -46,537 -69,806 174,4 444,102 571,140 263,80 533,152 808,175 -190,-204 -360,-444 -584,-593l-123 -81 143 -36c221,-56 500,-138 731,-246z"/>
     <path class="fil23" d="M14648 22631c151,-280 -347,-422 -454,-708 -173,379 -277,848 -241,1168 198,-67 119,-166 317,-233 126,-76 252,-152 378,-227z"/>
     <path class="fil13" d="M14203 22069c-111,278 -200,630 -192,921 16,-14 30,-30 47,-53 53,-74 99,-109 184,-139 119,-71 237,-142 356,-214 11,-24 16,-50 11,-78 -18,-98 -186,-221 -259,-285 -52,-46 -105,-96 -147,-152z"/>
     <path class="fil23" d="M11654 22604c1008,118 1838,449 2451,1037 181,-337 362,-674 543,-1010 -873,-674 -1831,-1069 -2862,-1226 -713,-108 -1490,-114 -2209,-46 -1175,112 -2261,516 -3240,1272 181,336 362,673 543,1010 646,-620 1533,-953 2614,-1055 701,-66 1461,-65 2160,18z"/>
     <path class="fil13" d="M14088 23535c159,-295 318,-591 477,-886 -829,-629 -1759,-1023 -2789,-1179 -715,-109 -1474,-114 -2193,-46 -1170,111 -2225,514 -3162,1225 159,295 318,591 476,886 713,-648 1645,-925 2591,-1014 714,-67 1461,-66 2174,18 890,105 1756,386 2426,996z"/>
    </g>
    <path class="fil6" d="M7068 23145l-292 -486 -95 58 -60 -99 256 -154 59 99 -95 57 292 486 -65 39zm-124 -728l67 -36 173 326c28,52 46,85 56,100 16,23 33,39 52,48 19,9 37,9 56,-1 19,-10 30,-25 32,-44 2,-19 -1,-40 -10,-61 -9,-22 -27,-56 -52,-104l-177 -333 67 -36 168 317c38,72 64,124 76,156 12,32 19,60 20,86 2,26 -3,49 -13,70 -9,21 -27,38 -54,52 -31,17 -59,23 -82,18 -24,-4 -46,-15 -66,-31 -21,-16 -39,-35 -55,-57 -22,-32 -52,-82 -87,-149l-171 -321zm972 298l-76 30 -89 -131 -139 56 30 156 -75 30 -120 -688 74 -30 395 577zm-230 -198l-143 -216 48 254 95 -38zm265 183l-223 -645 72 -25 88 254 140 -48 -88 -254 72 -25 222 646 -71 24 -98 -282 -140 48 97 282 -71 25zm333 -821l146 -36c29,-7 51,-10 66,-10 15,1 30,7 45,18 14,11 28,27 41,49 14,21 24,46 31,74 8,31 10,61 7,89 -2,28 -10,51 -22,68 25,6 47,22 66,47 19,25 33,57 42,95 8,30 11,61 11,91 -1,30 -6,56 -15,76 -9,20 -23,35 -41,44 -12,5 -41,14 -88,26l-124 31 -165 -662zm101 92l39 153 48 -12c28,-7 46,-12 52,-15 12,-6 20,-17 24,-31 4,-15 3,-34 -2,-55 -5,-20 -12,-36 -22,-48 -9,-11 -20,-16 -33,-16 -8,0 -29,5 -63,14l-43 10zm66 263l44 177 68 -17c27,-6 43,-12 50,-16 10,-6 16,-18 20,-33 3,-16 2,-36 -4,-59 -5,-20 -12,-36 -21,-49 -8,-12 -19,-20 -30,-24 -12,-4 -34,-2 -68,7l-59 14zm248 -457l74 -13 65 363c10,58 17,96 22,112 8,27 20,48 35,62 15,15 32,21 53,17 21,-4 36,-15 44,-32 8,-18 11,-38 9,-62 -2,-23 -7,-61 -17,-114l-65 -372 74 -13 63 353c14,80 22,138 24,172 2,34 -1,63 -8,88 -7,25 -18,46 -34,62 -15,17 -38,28 -67,33 -35,7 -63,4 -84,-8 -21,-11 -39,-28 -54,-50 -14,-22 -26,-45 -34,-71 -11,-37 -24,-94 -37,-169l-63 -358zm491 606l-95 -675 112 -16 133 451 1 -470 113 -16 95 676 -70 10 -74 -532 1 542 -73 10 -148 -521 75 532 -70 9zm430 -64l-47 -680 75 -6 48 681 -76 5zm270 -700l75 -2 13 369c2,59 5,97 7,114 4,28 13,50 26,66 12,17 29,25 50,24 22,-1 38,-9 48,-26 11,-16 16,-36 18,-59 1,-24 1,-62 -1,-116l-13 -377 76 -3 12 358c3,82 3,140 0,174 -3,34 -9,63 -20,86 -10,24 -24,43 -42,57 -18,15 -41,23 -71,24 -36,1 -63,-6 -82,-20 -19,-15 -35,-34 -46,-57 -12,-24 -20,-49 -24,-75 -6,-39 -11,-96 -14,-173l-12 -364zm403 665l0 -683 74 0 154 456 0 -456 70 0 0 683 -76 0 -151 -445 0 445 -71 0zm462 4l20 -567 -111 -4 4 -115 298 10 -4 116 -111 -4 -20 567 -76 -3zm283 -663l76 5 -26 369c-4,58 -6,96 -5,114 1,28 7,51 18,68 11,18 27,28 48,29 22,2 38,-5 50,-20 12,-16 20,-35 24,-58 4,-23 8,-61 12,-115l26 -377 75 5 -25 358c-5,82 -11,139 -18,173 -6,33 -16,61 -28,84 -13,22 -29,40 -48,52 -20,13 -44,18 -74,16 -35,-3 -62,-12 -79,-29 -18,-16 -31,-36 -40,-61 -9,-25 -14,-50 -16,-77 -2,-39 -1,-97 5,-173l25 -363zm332 702l95 -676 73 11 89 472 63 -451 70 10 -95 676 -76 -11 -87 -462 -62 441 -70 -10zm584 -163l18 -113 161 25 -42 269c-20,25 -47,46 -80,62 -33,16 -65,22 -95,17 -39,-6 -71,-26 -95,-60 -24,-34 -39,-80 -45,-137 -5,-58 -3,-119 7,-183 11,-71 29,-132 54,-184 25,-52 55,-90 91,-114 27,-19 59,-25 94,-19 46,7 79,30 99,69 21,39 30,91 27,154l-78 13c0,-34 -6,-61 -17,-83 -11,-21 -28,-34 -49,-37 -33,-5 -62,9 -87,44 -26,35 -44,89 -56,163 -12,80 -12,142 1,185 13,43 36,67 67,72 16,3 33,-1 50,-9 18,-9 33,-20 47,-34l14 -86 -86 -14zm484 -346l146 34c29,6 50,14 64,21 13,8 23,20 31,37 8,16 13,37 16,62 2,24 0,51 -7,80 -7,31 -18,59 -34,83 -15,23 -32,40 -51,49 20,17 32,41 38,72 5,32 3,66 -5,105 -7,30 -18,59 -32,85 -15,27 -31,48 -48,62 -17,14 -36,20 -57,20 -13,-1 -43,-6 -90,-16l-124 -29 153 -665zm49 128l-36 154 48 11c29,6 47,10 55,10 13,0 25,-6 35,-17 10,-12 18,-28 23,-50 4,-20 5,-38 2,-52 -3,-14 -11,-24 -22,-30 -7,-3 -28,-8 -63,-16l-42 -10zm-61 264l-41 178 68 16c26,6 44,8 51,7 12,-1 23,-8 33,-20 10,-12 18,-31 24,-54 4,-20 5,-38 3,-53 -2,-15 -7,-27 -16,-36 -8,-8 -29,-16 -63,-24l-59 -14zm226 370l177 -660 269 72 -30 112 -196 -52 -39 146 182 48 -30 111 -182 -48 -48 179 203 54 -30 111 -276 -73zm334 98l233 -641 69 25 -11 481 156 -428 66 24 -233 641 -72 -26 10 -470 -152 418 -66 -24zm633 -497l69 31 -150 337c-24,54 -39,89 -44,106 -9,26 -11,50 -6,70 4,21 16,35 35,44 20,9 38,8 54,-2 17,-10 31,-26 42,-46 12,-20 28,-55 50,-105l154 -344 69 30 -146 328c-33,75 -59,127 -76,156 -18,29 -36,52 -56,69 -19,17 -40,28 -62,33 -23,5 -48,1 -75,-11 -33,-14 -54,-32 -65,-53 -11,-22 -16,-45 -16,-72 0,-26 3,-52 11,-77 11,-38 33,-92 64,-162l148 -332zm370 941l-73 -38 41 -153 -134 -68 -98 124 -71 -36 440 -542 71 37 -176 676zm-2 -304l69 -249 -160 203 91 46z"/>
    <g>
     <path class="fil7" d="M2619 10911c784,811 243,1094 23,1251 -124,-127 -734,-591 -23,-1251z"/>
     <path class="fil6" d="M2638 10892c578,598 452,921 249,1117 -61,59 -129,106 -186,145l0 0c-15,10 -29,20 -43,30l-19 14 -17 -17c-9,-10 -22,-22 -37,-36 -27,-26 -61,-59 -97,-97 -202,-218 -459,-627 112,-1157l20 -18 18 19zm212 1078c182,-176 292,-469 -232,-1021 -510,488 -276,862 -91,1062 36,38 69,69 95,94l23 22 25 -18 0 0c55,-38 121,-83 180,-139z"/>
     <path class="fil7" d="M2619 12129c784,811 243,1094 23,1251 -124,-127 -734,-591 -23,-1251z"/>
     <path class="fil6" d="M2638 12110c578,598 452,921 249,1117 -61,59 -129,106 -186,145l0 0c-15,10 -29,20 -43,30l-19 14 -17 -17c-9,-10 -22,-22 -37,-36 -27,-26 -61,-58 -97,-97 -202,-217 -459,-626 112,-1157l20 -18 18 19zm212 1078c182,-176 292,-469 -232,-1021 -510,489 -276,863 -91,1062 36,38 69,70 95,95l23 21 25 -17 0 0c55,-38 121,-84 180,-140z"/>
     <path class="fil7" d="M2619 13347c784,811 243,1095 23,1252 -124,-128 -734,-591 -23,-1252z"/>
     <path class="fil6" d="M2638 13329c578,598 452,921 249,1116 -61,59 -129,106 -186,146l0 0c-15,10 -29,19 -43,30l-19 13 -17 -16c-9,-10 -22,-22 -37,-37 -27,-25 -61,-58 -97,-96 -202,-218 -459,-627 112,-1157l20 -19 18 20zm212 1077c182,-176 292,-468 -232,-1020 -510,488 -276,862 -91,1062 36,37 69,69 95,94l23 21 25 -17 0 0c55,-38 121,-83 180,-140z"/>
     <path class="fil7" d="M2619 14566c784,811 243,1094 23,1251 -124,-127 -734,-591 -23,-1251z"/>
     <path class="fil6" d="M2638 14547c578,598 452,921 249,1117 -61,59 -129,106 -186,145l0 0c-15,10 -29,20 -43,30l-19 14 -17 -17c-9,-10 -22,-22 -37,-36 -27,-26 -61,-59 -97,-97 -202,-218 -459,-626 112,-1157l20 -18 18 19zm212 1078c182,-176 292,-469 -232,-1021 -510,489 -276,862 -91,1062 36,38 69,69 95,95l23 21 25 -18 0 0c55,-38 121,-83 180,-139z"/>
     <path class="fil7" d="M2619 15784c784,811 243,1095 23,1251 -124,-127 -734,-590 -23,-1251z"/>
     <path class="fil6" d="M2638 15765c578,598 452,921 249,1117 -61,59 -129,106 -186,145l0 0c-15,10 -29,20 -43,31l-19 13 -17 -17c-9,-10 -22,-22 -37,-36 -27,-26 -61,-58 -97,-97 -202,-217 -459,-626 112,-1157l20 -18 18 19zm212 1078c182,-176 292,-468 -232,-1021 -510,489 -276,863 -91,1062 36,38 69,70 95,95l23 21 25 -17 0 0c55,-38 121,-83 180,-140z"/>
     <path class="fil7" d="M2619 17003c784,811 243,1094 23,1251 -124,-128 -734,-591 -23,-1251z"/>
     <path class="fil6" d="M2638 16984c578,598 452,921 249,1117 -61,59 -129,105 -186,145l0 0c-15,10 -29,20 -43,30l-19 14 -17 -17c-9,-10 -22,-22 -37,-36 -27,-26 -61,-59 -97,-97 -202,-218 -459,-627 112,-1157l20 -18 18 19zm212 1077c182,-175 292,-468 -232,-1020 -510,488 -276,862 -91,1062 36,37 69,69 95,94l23 22 25 -18 0 0c55,-38 121,-83 180,-140z"/>
     <path class="fil7" d="M2619 18221c725,460 452,1170 232,1326 -107,-194 -926,-590 -232,-1326z"/>
     <path class="fil6" d="M2633 18198c145,92 251,193 326,299 122,171 163,352 157,517 -7,165 -60,313 -128,419 -38,60 -80,107 -121,137l-25 17 -15 -26c-20,-37 -72,-85 -134,-143l0 0c-251,-232 -662,-613 -94,-1216l15 -16 19 12zm282 330c-68,-95 -163,-187 -292,-272 -507,553 -126,907 107,1123l0 0c53,49 99,91 127,129 29,-26 58,-61 85,-104 63,-99 114,-238 120,-392 6,-154 -33,-323 -147,-484z"/>
     <path class="fil7" d="M2854 19539c843,139 718,894 572,1100 -148,-174 -1082,-306 -572,-1100z"/>
     <path class="fil6" d="M2858 19512c178,29 314,86 417,158 134,95 212,217 251,344 39,127 40,258 21,371 -19,115 -58,212 -99,270l-20 28 -22 -26c-32,-37 -109,-75 -201,-120 -75,-37 -159,-78 -237,-128 -249,-161 -443,-409 -137,-885l10 -15 17 3zm386 203c-93,-66 -216,-118 -377,-146 -267,427 -93,650 130,794 77,49 159,89 232,125 79,39 148,73 192,109 30,-54 58,-131 72,-220 18,-107 17,-229 -19,-347 -36,-116 -107,-228 -230,-315z"/>
     <path class="fil7" d="M3412 20626c852,63 795,826 668,1045 -163,-160 -1105,-208 -668,-1045z"/>
     <path class="fil6" d="M3414 20599c179,13 320,57 429,121 142,82 230,197 280,320 51,122 63,253 55,367 -8,116 -39,216 -74,278l-18 30 -25 -25c-34,-34 -115,-65 -210,-101 -77,-30 -164,-63 -248,-107 -262,-137 -477,-367 -215,-868l8 -16 18 1zm402 168c-99,-58 -226,-98 -388,-112 -228,449 -35,656 200,779 80,42 166,75 242,104 83,32 154,59 201,91 26,-56 46,-135 53,-225 8,-108 -4,-230 -51,-344 -46,-113 -127,-218 -257,-293z"/>
     <path class="fil7" d="M4061 21655c883,36 850,826 726,1056 -174,-160 -1148,-177 -726,-1056z"/>
     <path class="fil6" d="M4063 21628c185,8 332,48 447,110 149,80 243,195 299,320 56,125 74,259 69,378 -5,119 -33,224 -67,288l-17 31 -25 -24c-38,-34 -122,-63 -221,-98 -82,-28 -173,-60 -260,-101 -275,-133 -504,-363 -251,-888l8 -16 18 0zm421 158c-104,-56 -237,-94 -406,-103 -220,473 -14,681 234,800 85,41 174,71 253,99 87,30 162,56 212,88 24,-59 43,-142 47,-236 4,-112 -12,-237 -64,-353 -52,-116 -139,-222 -276,-295z"/>
     <path class="fil7" d="M4784 22703c860,-199 1038,571 980,826 -210,-108 -1154,133 -980,-826z"/>
     <path class="fil6" d="M4778 22677c181,-42 333,-42 460,-13 165,38 287,124 374,230 87,105 140,230 167,345 27,117 28,225 11,296l-7 34 -32 -16c-44,-23 -133,-29 -238,-36 -86,-5 -182,-11 -277,-29 -301,-54 -583,-216 -478,-789l3 -18 17 -4zm448 40c-115,-26 -253,-27 -418,9 -87,514 166,660 437,709 92,17 187,23 271,28 91,6 171,11 227,29 8,-63 4,-149 -17,-240 -26,-109 -75,-226 -156,-324 -80,-97 -192,-176 -344,-211z"/>
     <path class="fil7" d="M5771 23511c840,-272 1083,480 1047,739 -219,-90 -1139,232 -1047,-739z"/>
     <path class="fil6" d="M5763 23485c177,-57 328,-70 457,-52 168,24 297,99 393,197 95,98 158,217 195,330 37,114 47,222 37,294l-5 34 -32 -13c-47,-19 -136,-17 -242,-15 -85,2 -182,4 -278,-5 -304,-29 -599,-166 -544,-746l2 -18 17 -6zm450 2c-117,-16 -255,-5 -416,45 -43,520 222,643 496,669 93,8 188,7 272,5 92,-2 171,-4 229,9 3,-64 -9,-148 -38,-238 -34,-106 -93,-218 -182,-309 -89,-90 -207,-159 -361,-181z"/>
     <path class="fil7" d="M6801 24234c832,-403 1215,301 1221,563 -244,-54 -1151,410 -1221,-563z"/>
     <path class="fil6" d="M6789 24210c173,-84 328,-121 465,-124 190,-5 345,56 465,145 121,89 207,207 261,319 45,93 67,182 69,246l1 35 -34 -8c-53,-11 -146,5 -256,24 -85,14 -181,31 -278,38 -326,23 -666,-58 -708,-649l-1 -18 16 -8zm466 -70c-125,3 -266,36 -425,111 44,527 352,601 648,580 95,-7 189,-23 273,-38 96,-17 180,-31 241,-28 -6,-53 -27,-121 -61,-192 -51,-104 -132,-215 -244,-298 -112,-83 -255,-139 -432,-135z"/>
     <path class="fil7" d="M8007 24792c776,-454 1187,225 1209,485 -238,-38 -1083,482 -1209,-485z"/>
     <path class="fil6" d="M7993 24769c165,-96 313,-143 446,-154 175,-15 322,32 440,109 118,76 208,182 269,285 57,99 89,196 95,266l3 34 -34 -5c-51,-8 -140,13 -244,39 -86,21 -181,45 -279,58 -309,40 -633,-27 -709,-605l-2 -18 15 -9zm450 -100c-121,11 -256,52 -406,138 73,516 366,576 645,540 94,-12 189,-36 273,-56 90,-23 170,-42 230,-43 -11,-59 -39,-135 -84,-211 -57,-98 -141,-196 -251,-268 -109,-70 -245,-113 -407,-100z"/>
     <path class="fil7" d="M9220 25274c593,-621 1166,-109 1256,136 -111,75 -844,678 -1256,-136z"/>
     <path class="fil6" d="M9200 25255c128,-134 255,-216 377,-261 158,-58 307,-53 438,-13 130,40 242,114 326,195 80,76 136,159 160,224l8 20 -18 12c-6,4 -15,11 -26,19 -50,36 -141,102 -256,160 -291,147 -726,241 -1013,-325l-9 -17 13 -14zm396 -210c-110,41 -226,115 -343,234 266,506 665,419 932,284 110,-56 199,-121 248,-156l9 -7c-24,-55 -72,-122 -138,-185 -79,-75 -184,-145 -305,-182 -120,-37 -257,-41 -403,12z"/>
     <path class="fil7" d="M3256 9835c179,916 -387,919 -648,1071 -190,-285 -443,-1173 648,-1071z"/>
     <path class="fil6" d="M3282 9830c152,770 -211,914 -496,1026 -61,24 -118,47 -164,74l-22 13 -14 -22c-65,-96 -136,-260 -163,-432 -19,-126 -15,-257 33,-371 49,-116 142,-213 299,-268 124,-44 288,-62 503,-42l20 2 4 20zm-516 976c264,-105 599,-237 467,-946 -197,-16 -347,1 -460,41 -141,50 -224,136 -267,238 -43,103 -47,224 -29,342 23,152 83,296 140,389 45,-23 95,-43 149,-64z"/>
     <path class="fil7" d="M4237 9060c-156,843 -686,723 -984,773 -78,-334 -180,-980 984,-773z"/>
     <path class="fil6" d="M4263 9065c-134,730 -542,758 -851,779 -56,4 -109,8 -155,16l-25 4 -6 -25c-40,-171 -86,-424 30,-610 116,-186 390,-302 985,-196l27 5 -5 27zm-855 725c287,-20 665,-46 797,-708 -549,-93 -800,10 -903,176 -99,160 -65,383 -29,544 42,-5 87,-8 135,-12z"/>
     <path class="fil7" d="M5339 8507c-319,787 -815,573 -1118,563 -35,-386 53,-962 1118,-563z"/>
     <path class="fil6" d="M5364 8517c-277,684 -685,633 -992,595 -55,-7 -107,-14 -151,-15l-24 -1 -3 -24c-18,-199 -4,-448 155,-598 158,-149 455,-197 1000,8l26 10 -11 25zm-985 541c285,35 663,83 924,-535 -503,-184 -775,-143 -917,-9 -137,129 -154,348 -140,530 42,2 86,8 133,14z"/>
     <path class="fil7" d="M6569 8276c-532,663 -945,315 -1232,219 76,-380 326,-907 1232,-219z"/>
     <path class="fil6" d="M6590 8293c-462,576 -837,410 -1121,285 -50,-22 -98,-43 -141,-57l-22 -8 4 -23c40,-196 125,-431 320,-529 194,-98 492,-58 956,294l22 16 -18 22zm-1099 235c264,117 612,270 1039,-247 -429,-321 -702,-359 -876,-272 -168,85 -247,290 -286,468 40,15 80,33 123,51z"/>
     <path class="fil7" d="M7921 8113c-600,672 -1031,213 -1343,177 16,-423 540,-933 1343,-177z"/>
     <path class="fil6" d="M7942 8132c-470,525 -839,377 -1130,260 -86,-35 -166,-67 -237,-75l-25 -3 1 -25c5,-142 66,-294 173,-408 53,-56 119,-104 195,-136 75,-33 162,-50 258,-46 211,8 470,119 763,395l19 18 -17 20zm-1109 209c271,109 615,247 1050,-226 -274,-253 -513,-354 -708,-362 -88,-3 -166,12 -235,42 -69,29 -128,72 -177,124 -92,97 -146,225 -156,347 70,13 145,43 226,75z"/>
     <path class="fil7" d="M9139 8058c-594,617 -948,123 -1227,60 48,-419 629,-805 1227,-60z"/>
     <path class="fil6" d="M9159 8077c-467,485 -790,305 -1045,162 -76,-42 -145,-80 -208,-94l-24 -6 3 -24c12,-105 56,-208 124,-294 71,-88 169,-158 284,-191 116,-33 249,-30 392,27 151,61 313,182 475,384l15 19 -16 17zm-1019 115c236,131 534,298 963,-135 -151,-184 -300,-294 -438,-349 -131,-52 -252,-56 -357,-26 -104,30 -192,93 -256,173 -57,71 -96,156 -110,243 63,19 128,55 198,94z"/>
     <path class="fil7" d="M10500 8015c-661,617 -1054,123 -1364,60 53,-419 699,-805 1364,-60z"/>
     <path class="fil6" d="M10519 8035c-517,483 -874,304 -1156,162 -85,-42 -162,-81 -232,-95l-25 -5 3 -25c16,-127 84,-251 188,-345 64,-57 142,-102 230,-130 88,-28 187,-38 292,-25 214,27 457,151 701,425l18 20 -19 18zm-1132 114c263,132 596,299 1075,-135 -229,-250 -453,-363 -649,-388 -98,-13 -188,-3 -269,23 -81,25 -152,67 -210,119 -89,79 -148,181 -167,287 69,18 142,54 220,94z"/>
     <path class="fil7" d="M18381 10911c-784,811 -243,1094 -23,1251 124,-127 734,-591 23,-1251z"/>
     <path class="fil6" d="M18382 10949c-524,552 -414,845 -232,1021 59,56 125,101 180,139l0 0 25 18 23 -22c26,-25 59,-56 95,-94 185,-200 419,-574 -91,-1062zm-269 1060c-203,-196 -329,-519 249,-1117l18 -19 20 18c571,530 314,939 112,1157 -36,38 -70,71 -97,97 -15,14 -28,26 -37,36l-17 17 -19 -14c-14,-10 -28,-20 -43,-30l0 0c-57,-39 -125,-86 -186,-145z"/>
     <path class="fil7" d="M18381 12129c-784,811 -243,1094 -23,1251 124,-127 734,-591 23,-1251z"/>
     <path class="fil6" d="M18382 12167c-524,552 -414,845 -232,1021 59,56 125,102 180,140l0 0 25 17 23 -21c26,-25 59,-57 95,-95 185,-199 419,-573 -91,-1062zm-269 1060c-203,-196 -329,-519 249,-1117l18 -19 20 18c571,531 314,940 112,1157 -36,39 -70,71 -97,97 -15,14 -28,26 -37,36l-17 17 -19 -14c-14,-10 -28,-20 -43,-30l0 0c-57,-39 -125,-86 -186,-145z"/>
     <path class="fil7" d="M18381 13347c-784,811 -243,1095 -23,1252 124,-128 734,-591 23,-1252z"/>
     <path class="fil6" d="M18382 13386c-524,552 -414,844 -232,1020 59,57 125,102 180,140l0 0 25 17 23 -21c26,-25 59,-57 95,-94 185,-200 419,-574 -91,-1062zm-269 1059c-203,-195 -329,-518 249,-1116l18 -20 20 19c571,530 314,939 112,1157 -36,38 -70,71 -97,96 -15,15 -28,27 -37,37l-17 16 -19 -13c-14,-11 -28,-20 -43,-30l0 0c-57,-40 -125,-87 -186,-146z"/>
     <path class="fil7" d="M18381 14566c-784,811 -243,1094 -23,1251 124,-127 734,-591 23,-1251z"/>
     <path class="fil6" d="M18382 14604c-524,552 -414,845 -232,1021 59,56 125,101 180,139l0 0 25 18 23 -21c26,-26 59,-57 95,-95 185,-200 419,-573 -91,-1062zm-269 1060c-203,-196 -329,-519 249,-1117l18 -19 20 18c571,531 314,939 112,1157 -36,38 -70,71 -97,97 -15,14 -28,26 -37,36l-17 17 -19 -14c-14,-10 -28,-20 -43,-30l0 0c-57,-39 -125,-86 -186,-145z"/>
     <path class="fil7" d="M18381 15784c-784,811 -243,1095 -23,1251 124,-127 734,-590 23,-1251z"/>
     <path class="fil6" d="M18382 15822c-524,553 -414,845 -232,1021 59,57 125,102 180,140l0 0 25 17 23 -21c26,-25 59,-57 95,-95 185,-199 419,-573 -91,-1062zm-269 1060c-203,-196 -329,-519 249,-1117l18 -19 20 18c571,531 314,940 112,1157 -36,39 -70,71 -97,97 -15,14 -28,26 -37,36l-17 17 -19 -13c-14,-11 -28,-21 -43,-31l0 0c-57,-39 -125,-86 -186,-145z"/>
     <path class="fil7" d="M18381 17003c-784,811 -243,1094 -23,1251 124,-128 734,-591 23,-1251z"/>
     <path class="fil6" d="M18382 17041c-524,552 -414,845 -232,1020 59,57 125,102 180,140l0 0 25 18 23 -22c26,-25 59,-57 95,-94 185,-200 419,-574 -91,-1062zm-269 1060c-203,-196 -329,-519 249,-1117l18 -19 20 18c571,530 314,939 112,1157 -36,38 -70,71 -97,97 -15,14 -28,26 -37,36l-17 17 -19 -14c-14,-10 -28,-20 -43,-30l0 0c-57,-40 -125,-86 -186,-145z"/>
     <path class="fil7" d="M18381 18221c-725,460 -452,1170 -232,1326 107,-194 926,-590 232,-1326z"/>
     <path class="fil6" d="M18377 18256c-129,85 -224,177 -292,272 -114,161 -153,330 -147,484 6,154 57,293 120,392 27,43 56,78 85,104 28,-38 74,-80 127,-129l0 0c233,-216 614,-570 107,-1123zm-336 241c75,-106 181,-207 326,-299l19 -12 15 16c568,603 157,984 -94,1216l0 0c-62,58 -114,106 -134,143l-15 26 -25 -17c-41,-30 -83,-77 -121,-137 -68,-106 -121,-254 -128,-419 -6,-165 35,-346 157,-517z"/>
     <path class="fil7" d="M18146 19539c-843,139 -718,894 -572,1100 148,-174 1082,-306 572,-1100z"/>
     <path class="fil6" d="M18133 19569c-161,28 -284,80 -377,146 -123,87 -194,199 -230,315 -36,118 -37,240 -19,347 14,89 42,166 72,220 44,-36 113,-70 192,-109 73,-36 155,-76 232,-125 223,-144 397,-367 130,-794zm-408 101c103,-72 239,-129 417,-158l17 -3 10 15c306,476 112,724 -137,885 -78,50 -162,91 -237,128 -92,45 -169,83 -201,120l-22 26 -20 -28c-41,-58 -80,-155 -99,-270 -19,-113 -18,-244 21,-371 39,-127 117,-249 251,-344z"/>
     <path class="fil7" d="M17588 20626c-852,63 -795,826 -668,1045 163,-160 1105,-208 668,-1045z"/>
     <path class="fil6" d="M17572 20655c-162,14 -289,54 -388,112 -130,75 -211,180 -257,293 -47,114 -59,236 -51,344 7,90 27,169 53,225 47,-32 118,-59 201,-91 76,-29 162,-62 242,-104 235,-123 428,-330 200,-779zm-415 65c109,-64 250,-108 429,-121l18 -1 8 16c262,501 47,731 -215,868 -84,44 -171,77 -248,107 -95,36 -176,67 -210,101l-25 25 -18 -30c-35,-62 -66,-162 -74,-278 -8,-114 4,-245 54,-367 51,-123 139,-238 281,-320z"/>
     <path class="fil7" d="M16939 21655c-883,36 -850,826 -726,1056 174,-160 1148,-177 726,-1056z"/>
     <path class="fil6" d="M16922 21683c-169,9 -302,47 -406,103 -137,73 -224,179 -276,295 -52,116 -68,241 -64,353 4,94 23,177 47,236 50,-32 125,-58 212,-88 79,-28 168,-58 253,-99 248,-119 454,-327 234,-800zm-432 55c115,-62 262,-102 447,-110l18 0 8 16c253,525 24,755 -251,888 -87,41 -178,73 -260,101 -99,35 -183,64 -221,98l-25 24 -17 -31c-34,-64 -62,-169 -67,-288 -5,-119 13,-253 69,-378 56,-125 150,-240 299,-320z"/>
     <path class="fil7" d="M16216 22703c-860,-199 -1038,571 -980,826 210,-108 1154,133 980,-826z"/>
     <path class="fil6" d="M16192 22726c-165,-36 -303,-35 -418,-9 -152,35 -264,114 -344,211 -81,98 -130,215 -156,324 -21,91 -25,177 -17,240 56,-18 136,-23 227,-29 84,-5 179,-11 271,-28 271,-49 525,-195 437,-709zm-430 -62c127,-29 279,-29 460,13l17 4 3 18c105,574 -177,735 -478,789 -95,18 -191,24 -277,29 -105,7 -194,13 -238,36l-32 16 -7 -34c-17,-71 -16,-179 11,-296 27,-115 80,-240 167,-345 87,-106 209,-192 374,-230z"/>
     <path class="fil7" d="M15229 23511c-840,-272 -1083,480 -1047,739 219,-90 1139,232 1047,-739z"/>
     <path class="fil6" d="M15203 23532c-161,-50 -299,-61 -416,-45 -154,22 -272,91 -361,181 -89,91 -148,203 -182,309 -29,90 -41,174 -38,238 58,-13 137,-11 229,-9 84,2 179,3 272,-5 274,-26 539,-149 496,-669zm-423 -99c129,-18 280,-5 457,52l17 6 2 18c55,580 -240,717 -544,746 -96,9 -193,7 -278,5 -106,-2 -195,-4 -242,15l-32 13 -5 -34c-10,-72 0,-180 37,-294 37,-113 100,-232 195,-330 97,-98 225,-173 393,-197z"/>
     <path class="fil7" d="M14199 24234c-832,-403 -1215,301 -1221,563 244,-54 1151,410 1221,-563z"/>
     <path class="fil6" d="M14170 24251c-159,-75 -300,-108 -425,-111 -177,-4 -320,52 -432,135 -112,83 -193,194 -244,298 -34,71 -55,139 -61,192 61,-3 145,11 241,28 84,15 178,31 273,38 296,21 604,-53 648,-580zm-424 -165c137,3 292,40 465,124l16 8 -1 18c-42,591 -382,672 -708,649 -97,-7 -193,-24 -278,-38 -110,-19 -203,-36 -256,-24l-34 8 1 -35c2,-64 24,-153 69,-246 54,-112 140,-230 261,-319 120,-90 275,-150 465,-145z"/>
     <path class="fil7" d="M12993 24792c-776,-454 -1187,225 -1209,485 238,-38 1083,482 1209,-485z"/>
     <path class="fil6" d="M12963 24807c-150,-86 -285,-127 -406,-138 -162,-13 -298,30 -407,100 -110,72 -194,170 -251,268 -45,76 -73,152 -84,211 60,1 140,20 230,43 84,20 179,44 273,56 279,36 572,-24 645,-540zm-402 -192c133,11 282,58 446,154l15 9 -2 18c-76,578 -400,645 -709,605 -98,-13 -193,-37 -279,-58 -104,-26 -193,-47 -244,-39l-34 5 3 -34c6,-70 38,-167 95,-266 61,-103 151,-209 269,-285 118,-77 265,-124 440,-109z"/>
     <path class="fil7" d="M11780 25274c-593,-621 -1214,-109 -1304,136 110,75 892,678 1304,-136z"/>
     <path class="fil6" d="M11747 25279c-115,-117 -230,-191 -342,-232 -157,-57 -307,-51 -438,-10 -133,40 -247,116 -330,195 -61,58 -105,118 -128,168l1 1c45,31 132,92 242,148 282,143 720,252 995,-270zm-323 -283c123,46 250,128 376,259l13 14 -9 17c-295,583 -772,466 -1076,312 -115,-58 -204,-121 -249,-153l-19 -13 -17 -12 7 -20c22,-60 75,-136 149,-207 89,-85 210,-165 352,-208 142,-44 304,-51 473,11z"/>
     <path class="fil7" d="M17744 9835c-179,916 387,919 648,1071 190,-285 443,-1173 -648,-1071z"/>
     <path class="fil6" d="M17767 9860c-132,709 203,841 467,946 54,21 104,41 149,64 57,-93 117,-237 140,-389 18,-118 14,-239 -29,-342 -43,-102 -126,-188 -267,-238 -113,-40 -263,-57 -460,-41zm447 996c-285,-112 -648,-256 -496,-1026l4 -20 20 -2c215,-20 379,-2 503,42 157,55 250,152 299,268 48,114 52,245 33,371 -27,172 -98,336 -163,432l-14 22 -22 -13c-46,-27 -103,-50 -164,-74z"/>
     <path class="fil7" d="M16763 9060c156,843 686,723 984,773 78,-334 180,-980 -984,-773z"/>
     <path class="fil6" d="M16795 9082c132,662 510,688 797,708 48,4 93,7 135,12 36,-161 70,-384 -29,-544 -103,-166 -354,-269 -903,-176zm793 762c-309,-21 -717,-49 -851,-779l-5 -27 27 -5c595,-106 869,10 985,196 116,186 70,439 30,610l-6 25 -25 -4c-46,-8 -99,-12 -155,-16z"/>
     <path class="fil7" d="M15661 8507c319,787 815,573 1118,563 35,-386 -53,-962 -1118,-563z"/>
     <path class="fil6" d="M15697 8523c261,618 639,570 924,535 47,-6 91,-12 133,-14 14,-182 -3,-401 -140,-530 -142,-134 -414,-175 -917,9zm931 589c-307,38 -715,89 -992,-595l-11 -25 26 -10c545,-205 842,-157 1000,-8 159,150 173,399 155,598l-3 24 -24 1c-44,1 -96,8 -151,15z"/>
     <path class="fil7" d="M14431 8276c532,663 945,315 1232,219 -76,-380 -326,-907 -1232,-219z"/>
     <path class="fil6" d="M14470 8281c427,517 775,364 1039,247 43,-18 83,-36 123,-51 -39,-178 -118,-383 -286,-468 -174,-87 -447,-49 -876,272zm1061 297c-284,125 -659,291 -1121,-285l-18 -22 22 -16c464,-352 762,-392 956,-294 195,98 280,333 320,529l4 23 -22 8c-43,14 -91,35 -141,57z"/>
     <path class="fil7" d="M13079 8113c600,672 1031,213 1343,177 -16,-423 -540,-933 -1343,-177z"/>
     <path class="fil6" d="M13117 8115c435,473 779,335 1050,226 81,-32 156,-62 226,-75 -10,-122 -64,-250 -156,-347 -49,-52 -108,-95 -177,-124 -69,-30 -147,-45 -235,-42 -195,8 -434,109 -708,362zm1071 277c-291,117 -660,265 -1130,-260l-17 -20 19 -18c293,-276 551,-387 763,-395 96,-4 183,13 258,46 76,32 142,80 195,136 107,114 168,266 173,408l1 25 -25 3c-71,8 -151,40 -237,75z"/>
     <path class="fil7" d="M11861 8058c594,617 948,123 1227,60 -48,-419 -629,-805 -1227,-60z"/>
     <path class="fil6" d="M11897 8057c429,433 727,266 963,135 70,-39 135,-75 198,-94 -14,-87 -53,-172 -110,-243 -64,-80 -152,-143 -256,-173 -105,-30 -226,-26 -357,26 -138,55 -287,165 -438,349zm989 182c-255,143 -578,323 -1045,-162l-16 -17 15 -19c162,-202 324,-323 475,-384 143,-57 276,-60 392,-27 115,33 213,103 284,191 68,86 112,189 124,294l3 24 -24 6c-63,14 -132,52 -208,94z"/>
     <path class="fil7" d="M10500 8015c661,617 1054,123 1364,60 -53,-419 -699,-805 -1364,-60z"/>
     <path class="fil6" d="M10538 8014c479,434 812,267 1075,135 78,-40 151,-76 220,-94 -19,-106 -78,-208 -167,-287 -58,-52 -129,-94 -210,-119 -81,-26 -171,-36 -269,-23 -196,25 -420,138 -649,388zm1099 183c-282,142 -639,321 -1156,-162l-19 -18 18 -20c244,-274 487,-398 701,-425 105,-13 204,-3 292,25 88,28 166,73 230,130 104,94 172,218 188,345l3 25 -25 5c-70,14 -147,53 -232,95z"/>
    </g>
   </g>
  </g>
 </g>
</svg>
